<?xml version="1.0" standalone="no"?>
<!DOCTYPE svg PUBLIC "-//W3C//DTD SVG 20010904//EN"
 "http://www.w3.org/TR/2001/REC-SVG-20010904/DTD/svg10.dtd">
<svg version="1.0" xmlns="http://www.w3.org/2000/svg"
 width="5000.000000pt" height="6250.000000pt" viewBox="0 0 5000.000000 6250.000000"
 preserveAspectRatio="xMidYMid meet">

<g transform="translate(0.000000,6250.000000) scale(0.100000,-0.100000)"
fill="#000000" stroke="none">
<path d="M20570 57419 c-905 -30 -1898 -241 -2770 -589 -877 -351 -1629 -805
-2285 -1379 -129 -113 -479 -460 -472 -468 3 -2 76 21 163 53 217 77 830 281
1049 348 1626 497 2973 656 4555 536 2277 -173 4443 -923 6395 -2215 308 -204
606 -417 743 -533 29 -24 55 -42 57 -40 6 6 -191 360 -278 500 -566 914 -1329
1713 -2237 2345 -882 614 -1913 1058 -2965 1277 -353 73 -631 113 -1060 151
-78 6 -576 24 -635 22 -25 -1 -142 -5 -260 -8z"/>
<path d="M18619 55486 c-2 -2 -91 -6 -197 -10 -107 -3 -197 -8 -200 -10 -4 -2
-63 -7 -132 -11 -69 -3 -156 -10 -195 -15 -38 -4 -77 -8 -85 -8 -8 -1 -28 -3
-45 -6 -16 -3 -59 -8 -95 -11 -96 -8 -211 -23 -315 -42 -16 -3 -37 -6 -45 -8
-8 -1 -31 -5 -50 -8 -19 -4 -55 -8 -80 -11 -52 -5 -153 -21 -190 -30 -53 -12
-88 -19 -167 -30 -45 -6 -85 -14 -89 -18 -4 -5 -24 -8 -45 -8 -21 0 -41 -5
-44 -10 -4 -6 -10 -8 -15 -5 -5 3 -12 0 -15 -6 -4 -5 -14 -8 -22 -5 -9 4 -21
2 -28 -4 -6 -5 -35 -11 -63 -12 -29 -2 -52 -7 -52 -12 0 -4 -6 -6 -14 -3 -8 3
-17 3 -20 -1 -4 -3 -14 -7 -24 -8 -17 -2 -28 -5 -84 -19 -16 -4 -28 -12 -28
-19 0 -6 -4 -5 -9 3 -5 8 -14 10 -22 6 -7 -5 -26 -9 -43 -11 -17 -1 -32 -6
-34 -12 -1 -5 -12 -8 -23 -5 -10 3 -26 0 -34 -7 -9 -7 -18 -10 -22 -7 -3 4
-12 2 -20 -4 -10 -9 -13 -8 -13 2 0 11 -2 11 -10 -1 -9 -13 -10 -13 -10 0 0
13 -2 13 -9 1 -10 -15 -24 -19 -76 -24 -16 -1 -33 -6 -37 -12 -5 -6 -8 -4 -8
4 0 10 -6 8 -21 -8 -13 -14 -27 -20 -39 -16 -10 3 -25 -1 -33 -10 -11 -10 -17
-11 -19 -3 -3 7 -12 9 -22 5 -10 -4 -14 -12 -10 -19 6 -10 4 -11 -7 0 -18 17
-30 15 -22 -5 4 -10 2 -14 -5 -9 -6 3 -13 2 -16 -3 -3 -5 -15 -7 -25 -4 -10 3
-28 0 -38 -6 -14 -7 -23 -7 -31 1 -9 9 -12 8 -12 -4 0 -22 -81 -60 -98 -45
-10 8 -12 7 -10 -3 2 -9 -9 -13 -32 -14 -23 -1 -34 -6 -32 -14 1 -8 -2 -11 -8
-7 -14 8 -82 -15 -97 -34 -8 -9 -13 -10 -13 -3 0 6 -7 9 -15 6 -8 -4 -12 -11
-9 -18 3 -6 -2 -2 -11 9 -11 12 -16 14 -13 5 3 -8 -2 -20 -11 -27 -22 -17 -31
-16 -31 3 0 12 -5 11 -20 -7 -18 -23 -19 -23 -20 -4 -1 11 -4 14 -7 8 -2 -7
-11 -13 -19 -13 -8 0 -14 -7 -14 -16 0 -8 -4 -12 -10 -9 -5 3 -20 -1 -32 -9
-15 -11 -26 -12 -39 -5 -14 7 -23 4 -38 -12 -14 -15 -25 -19 -43 -14 -21 7
-22 7 -8 -10 14 -17 13 -18 -4 -8 -23 13 -65 5 -44 -8 9 -6 4 -9 -16 -9 -16 0
-35 -8 -43 -17 -10 -13 -16 -15 -19 -5 -3 6 -10 12 -16 12 -6 0 -4 -8 5 -18
22 -24 21 -31 -3 -25 -11 3 -31 -2 -45 -11 -13 -9 -40 -17 -59 -18 -19 -2 -34
-7 -33 -12 1 -5 -4 -11 -12 -13 -9 -4 -11 1 -7 18 3 13 3 18 0 11 -3 -6 -9
-10 -13 -8 -4 3 -7 -5 -7 -17 1 -15 -4 -22 -17 -20 -12 0 -16 -4 -13 -13 3 -8
1 -14 -3 -14 -5 0 -11 5 -13 10 -2 6 -17 -2 -34 -17 -16 -16 -38 -27 -48 -25
-13 3 -16 0 -11 -10 5 -7 5 -10 0 -6 -4 4 -15 2 -23 -5 -13 -10 -15 -9 -10 11
l6 22 -31 -22 c-18 -12 -35 -27 -39 -33 -6 -7 -10 -6 -15 1 -6 9 -12 8 -21 -2
-10 -12 -10 -14 2 -14 8 0 18 -6 22 -12 4 -7 4 -10 -1 -6 -4 4 -14 1 -21 -7
-8 -8 -22 -11 -31 -8 -12 5 -14 3 -8 -7 6 -10 2 -11 -21 -6 -16 4 -24 3 -17
-1 15 -11 1 -35 -18 -33 -25 4 -39 0 -36 -9 1 -5 -1 -8 -4 -8 -3 1 -13 -4 -22
-12 -14 -11 -17 -11 -17 0 -1 9 -5 6 -13 -6 -7 -11 -18 -20 -24 -21 -29 -2
-33 -5 -33 -20 0 -8 -4 -12 -10 -9 -5 3 -10 2 -10 -4 0 -5 -10 -13 -22 -17
-13 -4 -39 -24 -59 -45 -20 -22 -39 -39 -43 -39 -5 0 -20 -9 -36 -20 -15 -11
-30 -17 -33 -13 -4 3 -10 -3 -14 -13 -8 -22 -28 -44 -40 -44 -5 0 -13 -10 -18
-22 -6 -15 -17 -22 -29 -20 -14 3 -17 -1 -13 -13 4 -9 1 -18 -7 -21 -8 -3 -16
-15 -20 -26 -4 -18 -7 -19 -20 -8 -9 7 -16 8 -16 3 0 -6 -10 -21 -22 -34 -22
-24 -30 -29 -44 -29 -4 0 -1 -7 6 -15 10 -12 8 -13 -10 -10 -18 3 -20 2 -10
-10 12 -15 -3 -31 -19 -20 -5 3 -12 1 -16 -5 -3 -5 0 -10 7 -10 7 0 2 -9 -11
-19 -18 -14 -21 -20 -10 -24 10 -4 10 -6 -3 -6 -9 -1 -18 -11 -20 -23 -2 -13
-9 -22 -16 -20 -8 1 -11 -1 -8 -6 3 -4 -8 -24 -25 -43 -16 -19 -29 -40 -29
-46 0 -7 -4 -13 -9 -13 -6 0 -8 -9 -6 -20 2 -12 -3 -21 -16 -25 -11 -4 -19
-15 -19 -29 0 -22 -26 -85 -40 -96 -3 -3 -14 -34 -24 -70 -11 -36 -25 -87 -33
-115 -8 -27 -16 -59 -18 -70 -2 -11 -9 -49 -16 -85 -19 -104 -13 -358 11 -502
l21 -124 -55 -265 c-101 -485 -249 -1266 -280 -1480 -17 -114 -21 -203 -8
-195 4 2 7 -11 6 -31 -2 -26 1 -33 12 -29 8 3 14 1 14 -4 0 -6 7 -10 15 -10 8
0 15 5 15 10 0 6 -3 9 -7 8 -13 -2 -43 14 -43 23 0 5 9 9 20 9 11 0 25 11 33
26 11 22 15 24 20 10 4 -9 2 -16 -4 -16 -6 0 -7 -4 -4 -10 3 -5 0 -10 -7 -10
-10 0 -10 -2 1 -9 24 -16 -9 -54 -49 -57 -18 -2 -37 -9 -42 -16 -14 -20 9
-378 24 -378 15 0 35 24 30 38 -2 6 3 15 12 18 9 3 16 10 16 16 0 5 14 21 30
35 17 13 27 30 23 36 -4 7 0 8 13 3 10 -4 15 -4 11 0 -4 4 -2 13 4 21 6 7 8
13 5 13 -4 0 -1 6 6 14 7 8 16 12 21 9 4 -2 7 1 7 8 0 13 76 107 103 127 9 7
15 17 13 21 -3 4 -1 13 5 21 6 11 9 12 9 2 0 -7 5 -10 10 -7 6 4 8 11 5 16 -4
5 5 20 19 34 15 14 26 32 26 40 0 18 11 19 30 3 12 -11 12 -10 0 5 -12 17 -12
20 3 28 9 5 25 30 36 54 11 25 25 45 31 45 6 0 9 4 6 9 -4 5 6 22 21 38 29 30
49 57 59 83 9 19 75 121 91 137 6 7 15 23 18 34 5 14 13 19 26 16 10 -3 19 -1
19 4 0 5 -4 9 -10 9 -17 0 -11 25 11 51 11 13 29 34 39 46 10 12 16 24 13 27
-3 3 0 12 7 21 10 12 16 13 29 3 14 -11 14 -11 3 3 -12 16 -7 49 8 49 6 0 14
19 19 45 1 3 10 14 21 25 11 11 20 27 20 35 0 8 5 15 10 15 6 0 10 7 10 15 0
7 6 18 13 22 6 4 21 26 32 48 11 22 36 56 55 74 19 19 35 41 36 48 1 8 11 26
21 40 10 14 23 34 29 44 6 11 14 16 17 12 4 -3 7 1 7 9 0 8 11 27 25 42 13 14
22 26 19 26 -3 0 2 7 10 16 9 8 16 23 16 32 0 15 2 15 10 2 8 -12 10 -11 10 6
0 12 11 26 28 35 46 24 55 36 35 48 -16 9 -16 10 5 11 12 0 22 -5 22 -12 0 -6
3 -8 7 -4 5 4 -1 14 -11 22 -18 13 -18 14 -2 14 9 0 15 4 11 9 -3 6 4 15 15
21 11 6 20 18 20 28 0 9 9 23 20 30 16 10 20 10 20 0 0 -9 3 -9 9 1 5 8 7 21
3 29 -4 12 1 14 21 10 22 -4 25 -3 17 12 -9 17 -1 27 24 28 5 0 13 6 18 14 7
9 8 7 4 -8 -4 -11 1 -29 10 -40 15 -19 15 -19 6 1 -10 22 -6 45 9 45 5 0 9 -7
9 -15 0 -8 5 -15 10 -15 18 0 10 29 -10 35 -26 8 -26 20 1 22 26 2 39 14 22
20 -7 2 -9 11 -6 19 4 10 8 12 12 5 4 -6 11 -3 19 9 10 16 9 18 -4 13 -14 -5
-14 -3 -4 14 7 10 22 19 34 19 11 -1 21 5 22 12 1 6 2 17 3 22 0 6 8 10 16 10
8 0 15 5 15 12 0 6 3 8 7 5 3 -4 13 2 20 13 8 11 19 17 25 14 6 -4 8 -2 5 3
-4 6 6 19 21 28 15 10 30 24 34 31 21 34 292 184 335 184 12 0 23 3 23 8 0 4
10 7 23 8 37 2 108 14 119 20 5 3 23 7 39 8 17 1 34 8 39 15 5 10 9 10 15 1 4
-6 13 -9 21 -6 8 3 14 1 14 -5 0 -6 5 -7 12 -3 12 8 41 13 91 16 21 2 27 6 24
19 -4 15 -1 16 19 9 21 -9 23 -7 14 15 -7 17 -5 25 6 29 8 3 13 2 10 -3 -3 -5
1 -12 10 -15 23 -9 27 -8 20 9 -3 9 1 18 9 22 13 5 13 7 -2 18 -15 11 -21 11
-36 -2 -9 -9 -20 -13 -24 -9 -4 4 -3 10 2 14 6 4 11 19 13 34 2 19 -2 28 -15
31 -12 3 -9 5 9 6 15 0 30 6 33 11 10 15 28 12 22 -4 -3 -8 1 -17 9 -20 24 -9
31 -7 14 4 -13 8 -13 10 -1 10 11 0 10 4 -5 16 -13 11 -15 17 -6 20 18 8 14
24 -5 17 -10 -4 -14 -2 -9 5 4 7 -1 10 -14 7 -11 -2 -18 0 -15 5 3 4 -1 11 -7
13 -8 3 -6 6 4 6 19 1 20 17 3 37 -7 9 -12 9 -17 0 -5 -7 -8 -5 -8 6 0 11 -5
15 -15 12 -8 -4 -15 -4 -15 -1 0 3 14 10 30 16 17 5 28 6 25 2 -2 -5 2 -14 10
-21 14 -11 14 -10 6 12 -5 15 -6 30 0 39 17 28 11 42 -17 35 l-26 -7 20 26 20
26 -23 23 c-13 13 -30 26 -37 29 -10 4 -10 6 0 6 22 2 13 18 -20 34 l-32 15
35 10 c19 6 26 11 17 11 -9 1 -28 -3 -42 -9 -17 -6 -26 -6 -26 0 0 6 8 10 18
10 14 0 15 2 2 10 -11 7 -11 10 -2 10 10 0 10 3 0 14 -11 11 -15 11 -26 -5 -7
-11 -18 -17 -23 -13 -6 4 -5 11 2 20 18 22 -4 40 -24 20 -14 -15 -16 -15 -14
2 1 13 8 18 24 16 13 -1 23 2 23 8 0 7 -18 9 -51 5 -44 -5 -49 -4 -39 8 7 8 9
15 6 15 -4 0 -2 9 4 20 6 11 15 18 20 15 6 -4 7 1 3 11 -4 12 -3 15 5 10 14
-8 15 3 3 23 -5 8 -18 12 -30 8 -12 -3 -21 0 -21 6 0 7 -4 7 -9 -2 -6 -9 -18
-12 -32 -8 -13 3 -30 1 -38 -6 -14 -10 -14 -10 -3 5 9 11 10 18 2 23 -16 10
-12 33 8 38 15 4 15 5 -2 6 -16 1 -17 3 -5 18 12 14 12 15 -1 10 -8 -4 -23
-10 -32 -13 -10 -4 -18 -11 -18 -16 0 -5 -5 -6 -11 -3 -5 4 9 19 33 34 24 16
46 24 49 18 4 -5 9 -5 13 2 8 13 -12 23 -51 24 -16 1 -31 6 -35 11 -4 6 -17 5
-35 -3 -27 -13 -28 -13 -9 8 14 15 23 18 36 11 10 -5 20 -7 23 -3 3 3 20 1 36
-5 17 -6 31 -7 31 -3 0 12 -26 21 -61 21 -17 0 -28 4 -25 9 3 4 -6 6 -19 3
-14 -2 -22 -8 -20 -12 12 -19 -17 -20 -44 -1 -15 11 -31 18 -33 15 -3 -3 -8 2
-11 11 -6 14 4 19 39 18 6 0 9 8 7 17 -3 10 3 31 12 46 16 27 16 28 0 7 -10
-13 -23 -23 -29 -23 -6 0 -4 5 4 10 12 8 13 13 3 29 -7 11 -10 27 -7 35 3 8
-1 27 -10 44 -11 22 -12 32 -3 41 17 17 50 14 43 -4 -7 -20 4 -19 21 3 8 9 12
12 9 6 -6 -11 14 -24 35 -24 16 0 6 53 -11 58 -13 5 -13 3 -1 -11 11 -14 11
-17 0 -17 -25 0 -39 16 -43 48 -3 20 0 31 7 29 7 -1 12 9 11 25 -1 29 15 29
17 0 1 -9 4 -3 8 13 l7 30 5 -37 c4 -34 3 -38 -17 -38 -29 0 -38 -15 -25 -37
9 -16 10 -15 11 7 0 14 4 20 8 14 8 -12 52 -14 52 -2 0 4 -5 8 -10 8 -7 0 -7
7 1 21 9 17 13 19 20 8 4 -7 10 -11 13 -9 2 3 -2 14 -10 24 -8 11 -14 14 -14
8 0 -7 -5 -12 -11 -12 -6 0 -8 7 -5 16 3 9 3 21 -1 27 -12 19 -13 46 -3 52 6
3 10 -1 10 -10 0 -11 7 -14 26 -11 15 3 29 7 32 10 9 9 -20 66 -31 59 -6 -3
-7 -1 -3 6 4 6 11 9 16 6 4 -3 11 1 13 7 3 7 6 0 6 -16 1 -30 16 -28 16 2 0 9
6 16 14 14 10 -2 12 5 7 33 -7 35 -2 40 33 36 11 -2 11 0 0 12 -10 11 -18 12
-27 5 -7 -6 -14 -9 -16 -7 -2 2 8 13 22 23 14 11 22 14 18 8 -4 -7 -5 -12 -2
-12 3 0 13 16 21 36 10 25 19 34 30 30 9 -3 15 0 15 9 0 9 6 12 16 8 15 -5 16
-1 10 33 -6 38 -6 39 9 14 14 -23 15 -23 10 -3 -5 18 -1 24 19 29 14 3 26 12
26 20 0 8 15 21 33 29 68 33 104 54 116 69 7 8 19 12 27 9 8 -3 23 2 33 11 12
11 27 15 44 11 18 -5 28 -2 35 11 6 11 17 15 31 11 11 -3 21 -1 21 5 0 5 4 7
9 4 5 -4 11 -1 13 6 2 6 20 11 39 11 19 0 37 5 41 10 4 7 12 6 22 -2 11 -9 16
-10 16 -2 0 6 7 11 16 11 10 0 14 6 11 14 -4 10 3 13 24 12 16 0 29 -5 29 -11
0 -5 4 -5 8 2 4 7 27 19 50 27 38 14 42 13 51 -2 10 -16 10 -16 11 1 0 15 6
16 40 11 36 -6 40 -5 40 15 0 19 8 25 28 19 4 -2 6 -6 5 -10 -3 -9 27 1 45 15
11 8 12 4 7 -19 -5 -22 -4 -25 4 -14 6 8 11 24 12 35 0 15 2 16 7 5 8 -17 32
-25 32 -11 0 5 14 13 31 16 25 6 34 3 43 -11 21 -39 18 -57 -10 -53 -4 0 -11
-5 -15 -13 -7 -10 -9 -10 -9 0 0 6 -5 12 -11 12 -6 0 -9 -7 -5 -15 4 -12 0
-14 -19 -9 -16 4 -25 2 -25 -6 0 -6 5 -8 12 -4 7 4 8 3 4 -4 -10 -17 -24 -15
-29 6 -3 10 -5 5 -7 -13 -1 -16 -4 -24 -7 -17 -2 6 -12 12 -21 12 -14 0 -15
-2 -2 -10 11 -7 3 -14 -35 -31 -28 -12 -56 -21 -64 -20 -8 2 -12 -3 -8 -12 4
-11 -2 -13 -26 -11 -16 2 -27 1 -24 -2 9 -9 -33 -45 -44 -38 -5 3 -9 0 -9 -6
0 -6 -4 -9 -9 -5 -6 3 -15 -4 -21 -15 -6 -11 -17 -20 -24 -20 -8 0 -16 -7 -20
-15 -3 -8 -12 -15 -21 -15 -8 0 -15 -4 -15 -9 0 -5 -19 -19 -42 -31 -23 -12
-67 -46 -97 -76 -30 -30 -59 -54 -63 -54 -5 0 -13 -10 -18 -22 -14 -31 -33
-62 -45 -70 -5 -4 -11 -33 -13 -65 -4 -92 -3 -105 9 -119 7 -8 7 -14 2 -14
-17 0 -2 -50 19 -61 10 -5 16 -14 13 -20 -4 -5 1 -12 10 -15 10 -4 13 -13 9
-26 -4 -14 -2 -18 5 -14 6 4 11 1 11 -8 0 -8 9 -17 19 -21 11 -3 23 -15 26
-26 4 -10 11 -19 16 -19 5 0 9 -7 9 -15 0 -8 4 -15 8 -15 5 0 35 -27 68 -60
32 -32 63 -59 68 -60 5 0 37 -20 72 -45 34 -25 67 -45 73 -45 6 0 11 -4 11
-10 0 -5 6 -10 13 -10 7 0 23 -9 35 -20 12 -11 26 -20 32 -20 5 0 10 -4 10 -9
0 -5 16 -15 35 -21 19 -6 35 -16 35 -21 0 -6 9 -7 20 -4 15 5 20 2 20 -10 0
-11 5 -15 15 -11 8 3 15 2 15 -2 0 -7 48 -32 62 -32 4 0 28 -13 54 -30 26 -16
50 -27 54 -25 4 2 16 -5 28 -15 12 -11 28 -20 36 -20 8 0 18 -4 21 -10 3 -5
15 -10 26 -10 10 0 19 -4 19 -10 0 -5 7 -10 15 -10 8 0 15 -5 15 -10 0 -6 3
-9 8 -8 4 1 22 -3 40 -9 18 -7 34 -13 37 -13 2 -1 35 -15 71 -31 37 -17 97
-40 133 -51 36 -11 71 -23 76 -26 6 -4 12 -7 15 -8 8 -1 42 -14 85 -32 21 -10
42 -17 45 -18 3 0 28 -8 55 -16 212 -68 289 -90 530 -153 244 -63 652 -126
975 -149 237 -18 776 -13 990 8 162 17 300 34 415 52 175 28 555 127 615 160
14 7 51 25 82 38 71 31 187 105 236 151 20 20 45 43 55 53 35 32 102 137 124
192 50 127 67 278 68 610 0 131 -4 178 -19 230 -24 85 -49 140 -60 133 -5 -4
-6 -1 -2 5 9 14 -11 49 -51 90 -18 18 -33 37 -33 41 0 10 -35 51 -44 51 -4 0
-13 6 -20 13 -7 6 -28 23 -46 37 -18 14 -39 31 -46 38 -7 6 -17 12 -23 12 -13
0 -48 19 -73 39 -10 8 -18 10 -18 6 0 -5 -6 -2 -12 7 -11 12 -125 64 -163 73
-5 1 -17 5 -25 8 -8 3 -40 13 -70 22 -30 9 -63 21 -72 26 -10 5 -27 9 -37 9
-11 0 -22 4 -25 9 -3 5 -15 7 -27 4 -12 -3 -24 -1 -28 4 -5 9 -107 35 -188 49
-15 2 -35 7 -43 10 -8 3 -26 7 -40 9 -14 2 -54 9 -90 15 -36 7 -74 13 -85 13
-11 1 -23 7 -27 12 -5 6 -8 5 -8 -4 0 -9 -4 -10 -12 -4 -7 6 -20 11 -28 11
-20 2 -84 10 -90 13 -3 1 -9 1 -14 0 -5 -1 -30 2 -55 8 -25 6 -82 12 -126 15
-44 3 -105 7 -135 10 -30 4 -93 8 -140 11 -47 2 -125 7 -175 10 -78 4 -432 17
-460 16 -5 0 -125 -3 -265 -6 -140 -3 -267 -7 -282 -9 -16 -2 -28 2 -28 8 0 6
-4 5 -9 -3 -5 -8 -22 -13 -40 -12 -29 2 -45 2 -110 1 -14 0 -28 6 -33 13 -5 8
-8 7 -8 -5 0 -20 -15 -24 -26 -6 -5 8 -10 6 -15 -8 -6 -16 -8 -14 -9 11 -2 30
-2 30 -10 5 -4 -14 -8 -19 -9 -12 -1 9 -6 10 -21 2 -19 -10 -19 -9 -2 19 9 16
20 27 24 25 12 -8 49 6 43 16 -3 5 0 12 6 16 7 4 9 3 5 -4 -3 -6 -2 -13 4 -17
6 -3 13 0 16 9 3 8 11 13 19 10 7 -3 15 2 18 10 4 9 16 16 27 16 18 0 19 -3
10 -20 -7 -14 -7 -20 0 -20 5 0 10 7 10 16 0 9 5 12 12 8 7 -4 8 -3 4 4 -5 8
1 12 16 12 18 0 20 -2 8 -10 -13 -8 -12 -10 3 -10 9 0 17 5 17 11 0 6 7 9 15
5 9 -3 15 0 15 9 0 10 9 14 25 13 20 -2 24 -6 19 -23 -6 -20 -6 -20 12 1 11
11 25 19 33 16 9 -3 11 0 6 8 -6 10 -4 12 8 7 9 -3 19 -2 22 2 3 5 14 7 25 4
11 -3 20 -1 20 5 0 6 16 8 38 5 27 -4 43 0 55 11 15 15 17 15 27 -4 14 -26 30
-26 37 0 7 26 21 26 25 -1 l3 -21 23 20 c17 15 34 20 59 17 20 -2 36 2 39 9 4
11 79 14 90 4 3 -3 22 -2 42 3 77 20 82 20 76 5 -4 -10 2 -12 21 -8 15 2 29
11 32 19 4 9 15 12 39 7 63 -12 109 -11 130 2 22 13 61 13 82 0 7 -4 12 -3 12
2 0 5 9 12 20 15 11 3 20 1 20 -5 0 -6 9 -8 20 -5 11 3 22 2 25 -3 4 -7 34 -6
110 4 17 2 33 -1 37 -8 6 -8 8 -8 8 2 0 6 7 12 15 12 8 0 15 -4 15 -9 0 -6 15
-5 36 1 20 5 43 6 52 2 10 -4 22 -6 27 -4 29 8 435 6 435 -3 0 -5 6 -7 14 -4
7 3 19 0 25 -6 9 -9 14 -8 21 3 7 12 12 12 21 3 9 -9 18 -9 31 -2 13 7 29 7
49 0 16 -5 29 -7 29 -3 0 4 42 7 93 5 95 -2 118 -4 177 -20 19 -5 124 -8 233
-7 108 1 197 -2 197 -7 0 -5 6 -6 14 -3 8 3 17 1 20 -4 3 -5 48 -8 101 -6 53
1 97 -1 100 -7 4 -5 12 -6 18 -2 13 8 167 11 182 4 15 -8 33 -10 98 -12 47 -2
57 -5 52 -17 -4 -11 -2 -12 7 -4 7 5 36 8 63 6 28 -2 67 -5 87 -7 21 -2 43 0
50 4 7 4 18 3 25 -3 8 -6 16 -8 20 -5 3 4 14 2 24 -3 10 -6 44 -12 76 -15 71
-6 85 -8 101 -19 7 -4 24 -5 37 -2 13 3 27 1 30 -4 4 -6 10 -8 14 -6 4 3 43 0
86 -6 44 -5 98 -11 120 -14 22 -2 51 -5 65 -8 14 -2 31 -5 38 -5 7 -1 11 -4 9
-8 -3 -5 20 -9 51 -10 31 -1 58 -7 60 -13 2 -5 8 -10 13 -10 6 0 7 6 3 13 -5
8 -2 7 10 -2 9 -8 40 -15 67 -17 66 -3 119 -13 119 -22 0 -4 17 -7 38 -6 20 0
54 -5 75 -12 20 -7 38 -13 40 -13 1 0 15 -4 30 -10 35 -14 40 -14 32 -1 -4 6
2 7 17 1 13 -4 29 -6 36 -4 6 3 12 0 12 -5 0 -6 8 -9 17 -8 10 2 33 -3 51 -11
19 -8 42 -11 53 -8 10 4 19 2 19 -4 0 -6 6 -8 14 -5 7 3 30 -2 51 -10 21 -9
46 -16 56 -16 11 0 19 -4 19 -9 0 -4 12 -8 28 -8 34 0 83 -12 97 -23 5 -4 29
-7 53 -6 23 1 42 -1 42 -4 0 -4 20 -10 44 -13 24 -4 60 -16 79 -27 25 -15 37
-18 42 -9 4 6 10 7 14 2 6 -9 68 -28 141 -44 25 -5 52 -11 60 -13 8 -2 22 -6
30 -8 39 -14 99 -28 119 -28 13 0 19 -4 16 -10 -4 -6 -3 -9 2 -8 15 4 133 -26
133 -35 0 -4 4 -6 9 -2 5 3 12 1 15 -3 3 -5 15 -8 28 -7 13 1 28 -2 34 -7 7
-5 16 -8 20 -7 5 1 17 -1 27 -4 9 -4 25 -10 35 -14 9 -3 20 -5 25 -5 4 1 24
-6 45 -17 20 -10 55 -22 77 -26 22 -4 46 -11 52 -17 7 -6 22 -8 33 -5 11 3 20
1 20 -4 0 -5 9 -9 21 -9 11 0 17 -4 14 -10 -3 -6 1 -7 10 -4 9 4 26 2 38 -4
44 -23 86 -38 132 -47 16 -3 34 -10 40 -14 5 -5 43 -19 83 -31 39 -13 72 -27
72 -32 0 -5 4 -7 9 -4 4 3 32 -6 60 -20 29 -13 56 -22 62 -19 5 4 9 2 9 -3 0
-6 11 -13 25 -16 13 -3 37 -11 52 -18 15 -6 30 -12 33 -13 3 -1 27 -11 53 -23
27 -12 53 -22 58 -22 5 0 9 -5 9 -11 0 -5 5 -7 10 -4 6 3 16 3 23 -2 6 -4 14
-8 17 -9 3 0 19 -7 35 -14 17 -7 33 -13 38 -12 4 1 7 -2 7 -7 0 -5 24 -16 53
-26 78 -25 276 -112 287 -125 3 -3 30 -16 60 -29 30 -13 62 -29 71 -37 8 -8
22 -14 30 -14 8 0 20 -5 27 -12 7 -7 12 -9 12 -5 0 4 10 2 23 -5 12 -7 24 -13
27 -13 13 -2 145 -71 148 -77 2 -5 8 -8 13 -8 6 0 29 -9 51 -20 23 -11 47 -20
54 -20 7 0 14 -3 16 -8 2 -4 30 -21 63 -38 50 -26 111 -59 225 -123 8 -5 40
-21 70 -37 30 -15 57 -30 60 -34 3 -4 19 -13 35 -22 111 -57 192 -102 208
-115 9 -9 26 -21 36 -27 11 -6 41 -23 67 -38 25 -16 50 -28 55 -28 5 0 9 -4 9
-9 0 -5 10 -11 23 -15 12 -3 31 -14 42 -24 11 -10 24 -18 28 -19 5 0 31 -16
59 -34 83 -56 101 -68 141 -89 21 -12 64 -40 95 -64 31 -24 67 -46 80 -50 12
-4 22 -11 22 -16 0 -5 8 -11 19 -15 16 -5 28 -13 77 -53 5 -5 30 -22 55 -38
43 -28 233 -168 255 -189 7 -5 24 -19 40 -30 15 -11 35 -27 44 -35 28 -26 95
-84 140 -120 88 -70 307 -295 385 -393 17 -21 41 -51 54 -65 12 -15 29 -38 36
-52 7 -14 34 -56 60 -95 56 -83 132 -239 208 -425 85 -210 91 -220 95 -156 5
64 -41 273 -84 388 -75 198 -202 411 -349 583 -60 71 -257 271 -330 336 -282
249 -701 547 -1090 775 -44 26 -81 51 -83 56 -2 4 -9 8 -16 8 -7 0 -32 13 -57
29 -68 44 -194 115 -198 112 -2 -1 -7 1 -10 6 -3 4 -28 19 -56 33 -27 13 -52
27 -55 30 -15 15 -220 122 -220 114 0 -4 -8 0 -17 8 -22 20 -295 158 -311 158
-7 0 -12 5 -12 10 0 6 -5 10 -11 10 -5 0 -58 23 -117 51 -146 70 -179 85 -237
108 -27 10 -63 26 -80 35 -16 9 -36 16 -42 16 -7 0 -13 5 -13 11 0 6 -6 9 -14
6 -8 -3 -20 0 -26 8 -6 7 -26 16 -45 19 -19 4 -35 12 -35 18 0 6 -3 8 -7 5 -3
-4 -25 4 -48 18 -23 13 -45 22 -48 19 -3 -3 -16 1 -29 10 -13 8 -73 33 -133
55 -61 22 -141 51 -180 66 -112 43 -378 136 -400 140 -11 2 -60 18 -110 36
-49 17 -101 33 -115 36 -14 2 -32 10 -40 17 -8 8 -24 12 -35 10 -10 -1 -25 2
-32 7 -7 6 -17 8 -23 4 -5 -3 -13 0 -16 9 -3 8 -13 14 -22 14 -9 -1 -44 7 -77
17 -33 10 -61 17 -63 16 -1 -1 -16 6 -32 14 -17 9 -35 13 -40 10 -6 -3 -10 -2
-10 3 0 5 -6 9 -12 9 -19 0 -200 43 -223 53 -21 9 -65 20 -100 27 -11 2 -31 8
-45 13 -14 5 -38 12 -55 15 -46 9 -49 10 -61 18 -6 3 -27 8 -47 11 -19 2 -44
9 -55 15 -11 6 -37 12 -56 13 -20 2 -36 6 -36 11 0 4 -11 7 -25 7 -13 0 -44 7
-67 14 -24 8 -57 17 -75 21 -18 3 -44 10 -59 15 -15 6 -29 8 -32 6 -2 -3 -13
-1 -24 5 -11 6 -36 12 -57 14 -21 2 -58 9 -82 16 -24 7 -48 13 -54 14 -5 0
-12 3 -15 7 -3 4 -28 8 -56 11 -28 2 -55 6 -60 10 -10 5 -115 31 -174 41 -14
2 -56 11 -95 19 -89 19 -131 28 -175 34 -19 3 -39 9 -45 13 -5 4 -50 12 -100
19 -49 7 -110 17 -135 23 -25 6 -54 12 -65 14 -11 2 -45 8 -75 13 -30 6 -80
15 -110 20 -30 5 -66 12 -80 15 -55 12 -94 19 -210 36 -30 4 -64 10 -75 13
-26 6 -89 16 -140 22 -106 12 -212 27 -350 49 -55 9 -118 19 -140 21 -22 3
-47 7 -55 9 -8 3 -46 7 -85 11 -38 3 -81 8 -95 10 -62 9 -191 25 -255 30 -38
3 -133 13 -209 21 -161 18 -182 20 -416 34 -96 6 -206 12 -245 15 -93 6 -901
16 -906 11z m-708 -516 c5 0 4 -6 -3 -13 -12 -14 -48 -12 -48 2 0 14 14 22 28
16 7 -3 18 -5 23 -5z m-53 -25 c12 -4 22 -11 22 -16 0 -14 -16 -11 -30 6 -9
11 -17 12 -30 5 -25 -13 -30 -13 -24 3 5 14 22 14 62 2z m-128 -5 c0 -5 -5
-10 -11 -10 -5 0 -7 5 -4 10 3 6 8 10 11 10 2 0 4 -4 4 -10z m-1156 -232 c-10
-15 -30 -8 -31 12 -1 16 1 18 17 8 10 -7 16 -16 14 -20z m96 12 c0 -4 -6 -10
-14 -13 -10 -4 -14 0 -13 12 1 18 27 18 27 1z m-143 -22 c-3 -7 -5 -2 -5 12 0
14 2 19 5 13 2 -7 2 -19 0 -25z m-17 -8 c0 -5 -4 -10 -10 -10 -5 0 -10 5 -10
10 0 6 5 10 10 10 6 0 10 -4 10 -10z m60 -24 c8 -3 5 -4 -7 -2 -13 2 -26 0
-29 -5 -3 -5 -13 -9 -22 -8 -13 0 -12 3 6 11 12 6 22 16 22 22 0 8 2 8 8 0 4
-6 14 -14 22 -18z m27 18 c-3 -3 -12 -4 -19 -1 -8 3 -5 6 6 6 11 1 17 -2 13
-5z m-337 -23 c0 -4 -6 -8 -13 -8 -8 0 -14 6 -14 13 0 7 6 10 14 7 7 -3 13 -8
13 -12z m-269 -54 c-10 -9 -11 -8 -5 6 3 10 9 15 12 12 3 -3 0 -11 -7 -18z
m-1531 -77 c0 -5 -5 -10 -11 -10 -5 0 -7 5 -4 10 3 6 8 10 11 10 2 0 4 -4 4
-10z m804 -455 c-4 -8 -1 -15 7 -15 7 0 10 -2 7 -5 -3 -3 -13 -3 -22 1 -13 5
-14 9 -5 20 15 18 20 18 13 -1z m-64 -59 c0 -2 -7 -7 -16 -10 -8 -3 -12 -2 -9
4 6 10 25 14 25 6z m-40 -28 c0 -6 -6 -5 -15 2 -8 7 -15 14 -15 16 0 2 7 1 15
-2 8 -4 15 -11 15 -16z m-63 -270 c-16 -9 -27 0 -21 17 5 11 9 12 19 2 9 -8
10 -14 2 -19z m-7 -28 c0 -5 7 -10 15 -10 24 0 17 -20 -9 -30 -25 -9 -25 -9
-9 -50 13 -32 14 -43 4 -53 -9 -9 -14 -9 -21 2 -7 12 -11 12 -24 -1 -8 -9 -12
-19 -8 -22 3 -4 -4 -9 -17 -13 -17 -4 -19 -8 -9 -14 10 -7 10 -9 -2 -10 -11 0
-9 -3 4 -8 17 -6 17 -9 3 -23 -9 -9 -13 -18 -10 -22 4 -3 1 -6 -5 -6 -22 0
-12 -18 13 -24 14 -4 23 -11 20 -16 -4 -6 -12 -7 -18 -3 -7 4 -18 8 -26 10
-16 2 -31 22 -31 40 0 7 7 10 16 6 14 -5 15 -3 4 17 -7 13 -8 25 -3 29 10 6
26 40 28 56 1 21 16 34 35 30 17 -3 19 -1 9 16 -14 26 -3 73 14 62 9 -5 9 -4
0 8 -10 12 -10 18 -1 27 15 15 28 15 28 2z m6055 -30 c-4 10 -2 9 8 -2 8 -10
19 -18 24 -18 13 0 8 -47 -7 -65 -7 -9 -8 -15 -2 -15 6 0 8 -22 6 -55 -3 -38
1 -63 11 -79 8 -12 12 -26 8 -29 -12 -13 13 -7 26 6 11 10 12 3 6 -37 -19
-132 -74 -246 -157 -322 -68 -63 -103 -78 -53 -23 48 54 128 164 127 175 0 5
4 15 10 22 6 6 7 12 2 12 -14 -1 -39 -23 -52 -45 -6 -11 -12 -14 -12 -7 0 7
-4 11 -9 8 -9 -6 -51 26 -51 39 0 4 8 4 18 1 16 -6 16 -5 0 7 -16 13 -16 15
-1 37 9 13 11 20 5 16 -7 -4 -12 -2 -12 3 0 6 5 11 10 11 6 0 10 7 10 15 0 8
-5 15 -10 15 -7 0 -7 6 -1 19 6 10 8 21 4 24 -3 4 -1 13 5 20 7 8 9 17 5 20
-3 4 -2 7 3 7 10 0 16 31 17 92 0 22 4 35 10 31 6 -3 7 -1 3 6 -4 7 -4 20 0
29 4 9 9 26 10 37 2 11 6 31 9 44 6 23 7 23 21 5 9 -11 13 -12 9 -4z m-6026
-63 c8 -10 7 -14 -4 -14 -8 0 -15 6 -15 14 0 7 2 13 4 13 2 0 9 -6 15 -13z m5
-63 c4 -9 13 -14 21 -10 22 8 45 -3 38 -20 -3 -8 -9 -14 -14 -14 -4 0 -6 7 -3
15 4 8 1 15 -4 15 -6 0 -12 -10 -14 -22 -3 -22 -22 -28 -24 -8 -1 6 -2 15 -3
22 -2 21 -15 -3 -16 -30 0 -22 -5 -27 -23 -25 -14 2 -22 -3 -22 -13 0 -8 -4
-12 -10 -9 -5 3 -10 1 -10 -4 0 -6 -4 -11 -9 -11 -6 0 -6 12 -1 29 4 16 6 32
2 35 -3 3 0 17 8 30 10 20 17 23 36 16 19 -7 24 -6 24 5 0 20 16 19 24 -1z
m116 6 c-8 -5 -19 -10 -25 -10 -5 0 -3 5 5 10 8 5 20 10 25 10 6 0 3 -5 -5
-10z m5 -60 c3 -5 1 -10 -4 -10 -6 0 -11 5 -11 10 0 6 2 10 4 10 3 0 8 -4 11
-10z m-78 -7 c-4 -3 -2 -12 3 -18 7 -9 5 -17 -7 -26 -14 -12 -16 -12 -9 0 6 9
5 12 -4 9 -7 -2 -14 -12 -16 -22 -1 -10 -6 -21 -10 -24 -4 -4 -4 1 0 12 5 14
2 17 -9 12 -8 -3 -15 -3 -15 -1 0 5 64 65 69 65 2 0 1 -3 -2 -7z m50 -18 c0
-8 -4 -12 -9 -9 -5 3 -6 10 -3 15 9 13 12 11 12 -6z m-134 -35 c3 -11 1 -20
-4 -20 -5 0 -9 9 -9 20 0 11 2 20 4 20 2 0 6 -9 9 -20z m171 5 c-4 -8 -10 -12
-15 -9 -11 6 -2 24 11 24 5 0 7 -7 4 -15z m-34 -7 c0 -11 -28 -10 -35 1 -3 6
4 9 15 8 11 -1 20 -5 20 -9z m-260 -8 c0 -5 0 -12 0 -15 0 -3 -3 -5 -6 -4 -4
0 -11 -5 -15 -13 -10 -16 -12 2 -3 26 7 18 24 22 24 6z m228 -25 c-3 -3 -9 2
-12 12 -6 14 -5 15 5 6 7 -7 10 -15 7 -18z m172 13 c0 -4 -7 -8 -15 -8 -8 0
-15 4 -15 8 0 5 7 9 15 9 8 0 15 -4 15 -9z m-276 -30 c-7 -11 -34 -10 -34 1 0
6 9 9 19 8 11 0 17 -5 15 -9z m229 -3 c-3 -9 -8 -14 -10 -11 -3 3 -2 9 2 15 9
16 15 13 8 -4z m-373 -15 c10 0 21 6 23 13 3 6 6 2 6 -10 1 -13 -3 -23 -9 -23
-5 0 -7 -7 -3 -16 4 -12 1 -15 -12 -13 -10 2 -20 11 -22 19 -4 13 -3 13 6 0 9
-13 11 -13 11 3 0 21 -18 23 -26 2 -4 -8 -13 -15 -22 -15 -13 0 -13 2 1 18 10
10 17 25 18 33 0 10 2 10 6 2 2 -7 13 -13 23 -13z m320 -15 c-7 -8 -18 -15
-24 -15 -6 0 -2 7 8 15 25 19 32 19 16 0z m-260 -16 c0 -18 -2 -20 -15 -9 -13
11 -13 15 -3 21 18 12 18 12 18 -12z m-83 -29 c-1 -3 3 -7 8 -9 13 -5 34 -33
34 -46 0 -5 -4 -2 -10 8 -12 20 -34 23 -26 3 6 -15 -11 -36 -27 -36 -6 0 -5 4
3 9 24 15 20 49 -6 56 -30 7 -30 25 1 23 14 -1 24 -5 23 -8z m70 -19 c0 -11
-5 -18 -9 -15 -4 3 -5 11 -1 19 7 21 12 19 10 -4z m308 9 c3 -5 1 -10 -4 -10
-6 0 -11 5 -11 10 0 6 2 10 4 10 3 0 8 -4 11 -10z m-422 -39 c4 8 5 5 4 -6 -2
-21 -25 -44 -42 -44 -5 0 -2 4 8 10 9 6 15 15 12 20 -4 5 -12 6 -18 2 -7 -4
-6 1 2 11 10 12 16 14 21 5 6 -8 9 -8 13 2z m-3 -61 c0 -5 -7 -10 -16 -10 -12
0 -15 -7 -12 -24 4 -19 1 -22 -14 -18 -10 2 -18 9 -18 14 0 5 5 6 12 2 7 -5 9
0 6 14 -4 16 -1 22 16 25 11 2 22 5 24 6 1 0 2 -3 2 -9z m43 -23 c3 -8 -1 -14
-8 -14 -7 0 -11 6 -8 14 3 7 6 13 8 13 2 0 5 -6 8 -13z m-113 -52 c11 -13 9
-15 -13 -13 -16 1 -23 7 -20 15 7 17 18 16 33 -2z m35 -15 c3 -5 1 -10 -4 -10
-6 0 -11 5 -11 10 0 6 2 10 4 10 3 0 8 -4 11 -10z m-75 -25 c0 -8 -2 -15 -4
-15 -2 0 -6 7 -10 15 -3 8 -1 15 4 15 6 0 10 -7 10 -15z m-20 -35 c-20 -13
-33 -13 -25 0 3 6 14 10 23 10 15 0 15 -2 2 -10z m853 -7 c-6 -16 -23 -17 -23
-2 0 5 -4 7 -10 4 -5 -3 -10 -2 -10 3 0 6 11 9 24 8 14 0 22 -6 19 -13z m-873
-54 c0 -5 -8 -9 -17 -9 -14 0 -15 -2 -4 -9 9 -6 10 -11 2 -15 -6 -4 -11 -2
-11 4 0 7 -7 10 -17 6 -15 -5 -15 -4 1 9 11 8 24 15 29 15 4 0 5 5 1 12 -4 7
-3 8 4 4 7 -4 12 -11 12 -17z m850 -33 c0 -3 -4 -8 -10 -11 -5 -3 -10 -1 -10
4 0 6 5 11 10 11 6 0 10 -2 10 -4z m-890 -10 c0 -2 -7 -6 -15 -10 -8 -3 -15
-1 -15 4 0 6 7 10 15 10 8 0 15 -2 15 -4z m20 -26 c0 -5 -2 -10 -4 -10 -3 0
-8 5 -11 10 -3 6 -1 10 4 10 6 0 11 -4 11 -10z m-50 -34 c0 -3 -4 -8 -10 -11
-5 -3 -10 -1 -10 4 0 6 5 11 10 11 6 0 10 -2 10 -4z m-35 -45 c3 -5 2 -12 -3
-15 -5 -3 -9 1 -9 9 0 17 3 19 12 6z m945 -26 c0 -3 -9 -5 -20 -5 -11 0 -20 7
-20 15 0 13 4 14 20 5 11 -6 20 -13 20 -15z m-13 -21 c-3 -3 -12 -4 -19 -1 -8
3 -5 6 6 6 11 1 17 -2 13 -5z m-1022 -114 c-3 -5 -12 -10 -18 -10 -7 0 -6 4 3
10 19 12 23 12 15 0z m-25 -30 c0 -5 -4 -10 -10 -10 -5 0 -10 5 -10 10 0 6 5
10 10 10 6 0 10 -4 10 -10z m-377 -555 c-3 -9 -8 -14 -10 -11 -3 3 -2 9 2 15
9 16 15 13 8 -4z m-218 -353 c-3 -3 -11 0 -18 7 -9 10 -8 11 6 5 10 -3 15 -9
12 -12z m-251 -337 c-15 -14 -21 -26 -14 -30 13 -8 13 -25 -1 -25 -5 0 -8 4
-4 9 3 5 1 12 -5 16 -6 4 -3 16 10 32 11 14 17 30 13 37 -4 6 1 5 10 -2 15
-13 14 -16 -9 -37z m-36 -77 c-3 -7 -10 -13 -15 -13 -6 0 -15 -4 -20 -9 -4 -5
-3 -6 3 -3 7 4 14 0 18 -8 3 -10 -1 -15 -12 -15 -9 0 -30 -11 -45 -25 -15 -14
-27 -21 -27 -16 0 6 8 15 18 20 9 6 13 11 9 11 -15 0 45 70 60 70 8 0 13 -6
11 -12z m-127 -179 l-20 -33 3 28 c2 15 9 32 17 36 21 14 22 5 0 -31z m-34
-44 c0 -8 -4 -12 -9 -9 -5 3 -6 10 -3 15 9 13 12 11 12 -6z m-27 -30 c0 -8 -4
-15 -10 -15 -5 0 -7 7 -4 15 4 8 8 15 10 15 2 0 4 -7 4 -15z m-20 -34 c0 -5
-7 -12 -16 -15 -14 -5 -15 -4 -4 9 14 17 20 19 20 6z m-76 -128 c-4 -13 -12
-19 -19 -17 -11 4 -10 9 3 23 21 22 23 21 16 -6z m-76 -104 c-10 -5 -18 -17
-18 -25 0 -8 -5 -12 -10 -9 -7 4 -9 -3 -6 -20 4 -20 2 -24 -7 -17 -7 6 -21 6
-34 1 -20 -7 -21 -12 -13 -34 8 -20 6 -27 -5 -31 -8 -4 -13 -10 -10 -14 3 -4
-1 -13 -8 -19 -11 -9 -14 -4 -15 24 -1 34 11 47 21 23 3 -8 6 -6 6 5 1 9 -4
17 -9 17 -7 0 -7 6 0 20 6 11 21 20 33 20 18 0 19 2 7 10 -14 9 -7 14 13 11 5
-1 11 8 14 19 3 11 9 17 14 14 5 -3 9 0 9 5 0 6 8 11 18 11 16 -1 16 -1 0 -11z
m-48 -83 c0 -9 -30 -14 -35 -6 -4 6 3 10 14 10 12 0 21 -2 21 -4z"/>
<path d="M21155 53250 c-3 -5 -1 -10 4 -10 6 0 11 5 11 10 0 6 -2 10 -4 10 -3
0 -8 -4 -11 -10z"/>
<path d="M19120 55146 c0 -2 7 -7 16 -10 8 -3 12 -2 9 4 -6 10 -25 14 -25 6z"/>
<path d="M20308 55133 c7 -3 16 -2 19 1 4 3 -2 6 -13 5 -11 0 -14 -3 -6 -6z"/>
<path d="M15558 54983 c7 -3 16 -2 19 1 4 3 -2 6 -13 5 -11 0 -14 -3 -6 -6z"/>
<path d="M15385 54961 c-3 -5 0 -13 6 -17 7 -4 9 -3 5 4 -3 5 0 13 6 15 9 4
10 6 1 6 -6 1 -14 -3 -18 -8z"/>
<path d="M15345 54930 c-3 -6 1 -7 9 -4 18 7 21 14 7 14 -6 0 -13 -4 -16 -10z"/>
<path d="M15075 54890 c3 -5 11 -10 16 -10 6 0 7 5 4 10 -3 6 -11 10 -16 10
-6 0 -7 -4 -4 -10z"/>
<path d="M14990 54840 c20 -13 33 -13 25 0 -3 6 -14 10 -23 10 -15 0 -15 -2
-2 -10z"/>
<path d="M15070 54836 c0 -19 13 -27 28 -17 8 4 5 11 -8 19 -16 10 -20 10 -20
-2z"/>
<path d="M14743 54717 c0 -7 9 -14 19 -14 10 -1 18 3 18 9 0 6 -3 8 -7 5 -3
-4 -11 -2 -18 3 -8 7 -12 6 -12 -3z"/>
<path d="M16440 54686 c0 -2 7 -6 15 -10 8 -3 15 -1 15 4 0 6 -7 10 -15 10 -8
0 -15 -2 -15 -4z"/>
<path d="M14455 54640 c-3 -5 -2 -10 4 -10 5 0 13 5 16 10 3 6 2 10 -4 10 -5
0 -13 -4 -16 -10z"/>
<path d="M14530 54613 c0 -4 5 -15 10 -23 8 -13 10 -13 10 2 0 9 -4 20 -10 23
-5 3 -10 3 -10 -2z"/>
<path d="M14350 54496 c0 -2 7 -7 16 -10 8 -3 12 -2 9 4 -6 10 -25 14 -25 6z"/>
<path d="M15585 54440 c-3 -5 -2 -10 4 -10 5 0 13 5 16 10 3 6 2 10 -4 10 -5
0 -13 -4 -16 -10z"/>
<path d="M13935 54230 c-3 -6 1 -7 9 -4 18 7 21 14 7 14 -6 0 -13 -4 -16 -10z"/>
<path d="M15335 54171 c-3 -5 -1 -12 5 -16 5 -3 10 1 10 9 0 18 -6 21 -15 7z"/>
<path d="M15230 54012 c0 -4 9 -15 20 -25 19 -16 20 -16 20 8 0 18 -5 25 -20
25 -11 0 -20 -3 -20 -8z"/>
<path d="M15267 53919 c7 -7 15 -10 18 -7 3 3 -2 9 -12 12 -14 6 -15 5 -6 -5z"/>
<path d="M15285 53851 c3 -5 -1 -12 -7 -14 -8 -4 -7 -6 4 -6 23 -1 32 15 12
23 -8 3 -13 2 -9 -3z"/>
<path d="M15115 53833 c6 -61 28 -90 55 -73 7 5 21 3 31 -3 15 -9 21 -8 33 8
18 24 20 35 5 35 -5 0 -8 -4 -4 -9 3 -5 1 -12 -5 -16 -5 -3 -10 -1 -10 6 0 8
-4 8 -15 -1 -14 -11 -19 -7 -16 13 0 4 -6 7 -14 7 -8 0 -15 5 -15 11 0 5 -5 7
-11 4 -6 -4 -13 2 -16 14 -6 25 -21 28 -18 4z m53 -51 c2 -7 -2 -10 -12 -6 -9
3 -16 11 -16 16 0 13 23 5 28 -10z"/>
<path d="M15204 53715 c-3 -13 -10 -22 -16 -19 -5 3 -7 13 -4 21 3 8 2 12 -3
9 -5 -3 -8 -17 -8 -31 0 -22 2 -23 21 -13 11 7 28 11 36 9 10 -2 9 3 -5 14
-11 9 -14 14 -7 10 14 -7 17 11 2 20 -5 3 -12 -6 -16 -20z"/>
<path d="M15150 53641 c0 -5 9 -11 21 -14 16 -4 18 -3 8 9 -13 16 -29 19 -29
5z"/>
<path d="M15305 53521 c-3 -5 -1 -12 5 -16 5 -3 10 1 10 9 0 18 -6 21 -15 7z"/>
<path d="M15303 53483 c4 -6 1 -14 -5 -16 -10 -4 -9 -8 2 -16 23 -16 34 -13
19 6 -8 9 -12 18 -11 20 2 3 0 8 -4 11 -4 4 -4 2 -1 -5z"/>
<path d="M15400 53350 c-13 -8 -12 -10 3 -10 9 0 17 5 17 10 0 12 -1 12 -20 0z"/>
<path d="M15436 53341 c-4 -5 3 -7 14 -4 23 6 26 13 6 13 -8 0 -17 -4 -20 -9z"/>
<path d="M15614 53095 c-6 -16 14 -49 34 -52 6 -2 12 4 12 13 0 10 6 14 15 10
9 -3 15 0 15 10 0 8 5 12 10 9 6 -3 10 1 10 9 0 18 -30 10 -30 -8 0 -6 -5 -3
-11 7 -6 9 -15 15 -21 11 -6 -4 -5 -10 3 -15 10 -6 7 -9 -10 -9 -16 0 -22 4
-17 15 3 8 3 15 0 15 -2 0 -7 -7 -10 -15z"/>
<path d="M15676 53003 c-6 -14 -5 -15 5 -6 7 7 10 15 7 18 -3 3 -9 -2 -12 -12z"/>
<path d="M15624 52976 c-3 -8 -4 -24 -2 -36 3 -20 4 -20 23 -5 18 15 18 16 1
11 -15 -5 -18 -2 -14 19 6 27 1 34 -8 11z"/>
<path d="M15580 52811 c0 -6 5 -13 10 -16 6 -3 10 1 10 9 0 9 -4 16 -10 16 -5
0 -10 -4 -10 -9z"/>
<path d="M15475 52640 c-3 -5 -2 -10 4 -10 5 0 13 5 16 10 3 6 2 10 -4 10 -5
0 -13 -4 -16 -10z"/>
<path d="M14867 52403 c-11 -11 -8 -20 8 -20 8 0 15 6 15 14 0 14 -12 17 -23
6z"/>
<path d="M14945 52400 c-3 -5 -2 -10 4 -10 5 0 13 5 16 10 3 6 2 10 -4 10 -5
0 -13 -4 -16 -10z"/>
<path d="M14783 52384 c-17 -17 -16 -24 1 -24 7 0 20 8 27 17 8 9 9 14 2 10
-6 -4 -13 -3 -15 2 -1 5 -9 3 -15 -5z"/>
<path d="M14814 52353 c3 -6 -1 -13 -11 -15 -11 -2 -14 -6 -8 -10 6 -4 17 -3
25 2 13 8 13 11 1 22 -9 8 -11 8 -7 1z"/>
<path d="M14874 52345 c11 -8 22 -12 25 -9 6 6 -19 24 -34 24 -5 -1 -1 -7 9
-15z"/>
<path d="M14770 52338 c0 -9 -5 -20 -12 -24 -7 -5 -9 -2 -5 9 4 11 2 14 -9 10
-7 -3 -14 -11 -14 -17 0 -17 47 -38 55 -26 4 6 0 10 -7 10 -10 0 -10 2 1 9 10
7 11 13 2 27 -9 17 -10 17 -11 2z"/>
<path d="M15158 52333 c7 -3 16 -2 19 1 4 3 -2 6 -13 5 -11 0 -14 -3 -6 -6z"/>
<path d="M14680 52289 c0 -7 3 -10 6 -6 4 3 15 -4 25 -16 10 -12 18 -16 19 -9
0 6 -6 12 -12 12 -9 0 -8 4 2 10 9 6 10 10 3 10 -6 0 -18 3 -27 6 -10 4 -16 1
-16 -7z"/>
<path d="M15225 52289 c-11 -16 -1 -19 13 -3 7 8 8 14 3 14 -5 0 -13 -5 -16
-11z"/>
<path d="M15331 52291 c-7 -5 -12 -14 -9 -21 3 -9 8 -9 20 3 15 15 17 14 22
-9 4 -15 9 -24 12 -22 7 7 -14 58 -23 58 -5 0 -14 -4 -22 -9z"/>
<path d="M14653 52255 c-1 -19 3 -33 7 -30 5 3 7 16 5 30 -4 39 -11 39 -12 0z"/>
<path d="M15261 52273 c0 -11 3 -13 6 -5 2 6 9 10 13 7 5 -3 11 -1 15 5 3 5
-3 10 -14 10 -14 0 -21 -6 -20 -17z"/>
<path d="M15155 52270 c-4 -6 -11 -8 -16 -5 -5 4 -9 1 -9 -5 0 -6 -5 -8 -12
-3 -21 12 -38 12 -35 0 1 -7 -12 -12 -33 -12 -24 0 -34 4 -32 13 1 8 -4 12
-15 10 -10 -2 -17 -11 -17 -20 1 -10 -5 -14 -17 -11 -21 6 -26 -12 -6 -21 6
-3 -1 -4 -18 -3 -19 1 -29 -2 -28 -10 2 -7 -4 -10 -12 -7 -10 4 -15 0 -15 -11
0 -13 -6 -16 -25 -13 -14 3 -28 1 -31 -4 -3 -4 -10 -6 -15 -3 -5 4 -9 2 -9 -4
0 -5 -10 -11 -22 -13 -13 -2 -23 -10 -23 -19 0 -9 -9 -24 -19 -35 -19 -19 -20
-19 -13 6 5 23 5 23 -7 7 -8 -10 -12 -28 -9 -40 5 -22 5 -22 -10 -2 -16 20
-16 20 -17 0 0 -27 -35 -56 -56 -48 -11 4 -15 2 -10 -5 3 -6 2 -13 -4 -17 -6
-4 -8 -10 -5 -14 2 -5 -4 -16 -15 -26 -13 -11 -20 -14 -20 -6 0 7 -5 9 -10 6
-6 -4 -8 -9 -6 -13 5 -9 -20 -32 -28 -25 -3 4 -6 -3 -6 -14 0 -12 -7 -23 -15
-27 -8 -3 -14 -11 -13 -18 2 -6 -9 -13 -25 -14 -24 -2 -27 -1 -17 11 7 8 17
12 23 8 6 -3 7 -1 3 5 -4 7 -2 12 5 12 10 0 10 3 2 11 -12 12 -37 3 -28 -11 3
-5 -4 -15 -16 -24 l-22 -15 27 -7 26 -6 -21 -19 c-12 -11 -18 -19 -13 -20 5 0
-4 -7 -21 -14 -16 -8 -25 -14 -19 -15 7 0 9 -11 6 -26 -3 -18 -7 -22 -13 -13
-4 7 -5 17 -3 21 3 4 -1 8 -8 8 -7 0 -14 -12 -15 -27 0 -14 -8 -30 -17 -35 -9
-5 -16 -18 -16 -28 0 -11 -9 -29 -20 -40 -11 -11 -20 -25 -20 -30 0 -6 -11
-15 -24 -22 -14 -6 -26 -20 -28 -32 -3 -19 -5 -18 -20 9 -10 17 -17 24 -18 16
0 -8 -6 -11 -16 -7 -9 4 -23 1 -31 -5 -11 -10 -12 -8 -3 16 9 24 9 26 -4 16
-12 -10 -14 -29 -6 -51 1 -3 2 -9 1 -13 -1 -5 3 -6 9 -2 9 6 14 -7 11 -27 -3
-18 17 -6 22 12 3 12 -1 24 -11 30 -16 9 -16 9 0 10 23 0 48 -11 48 -21 0 -5
-7 -9 -15 -9 -18 0 -20 -21 -2 -39 10 -10 9 -11 -6 -5 -12 4 -16 2 -12 -8 8
-19 -13 -36 -50 -41 -39 -5 -45 -34 -10 -47 17 -6 23 -14 19 -22 -6 -9 -9 -9
-12 0 -2 7 -12 12 -23 12 -10 0 -19 6 -19 14 0 8 -7 13 -15 12 -22 -3 -31 -16
-11 -16 9 0 19 -7 22 -15 4 -8 11 -12 16 -9 16 10 28 -18 17 -38 -12 -22 -29
-24 -29 -2 0 9 -5 12 -12 8 -8 -5 -5 -12 9 -23 19 -16 19 -16 -3 -36 -12 -11
-20 -24 -17 -29 3 -5 1 -6 -5 -2 -6 3 -13 2 -17 -4 -3 -5 -11 -10 -17 -10 -7
0 -7 4 1 13 11 14 5 27 -11 27 -5 0 -6 -6 -2 -12 5 -9 2 -9 -9 1 -12 9 -17 10
-17 2 0 -7 -4 -9 -10 -6 -5 3 -10 2 -10 -4 0 -5 5 -13 10 -16 31 -19 -13 -65
-62 -65 -16 0 -17 -2 -6 -14 7 -8 16 -12 20 -10 4 2 9 0 12 -5 12 -19 -17 -24
-31 -6 -7 11 -13 14 -13 9 0 -6 5 -15 12 -22 9 -9 5 -12 -20 -12 -18 0 -32 -3
-32 -8 0 -4 -14 -23 -31 -41 -16 -18 -28 -35 -25 -38 6 -6 52 40 49 49 -2 4 4
5 12 1 13 -4 13 -8 3 -21 -10 -12 -10 -14 0 -8 6 4 12 3 12 -2 0 -17 -13 -21
-33 -11 -13 7 -17 8 -13 1 4 -6 0 -15 -9 -19 -8 -5 -16 -24 -18 -43 -3 -19 -8
-33 -12 -32 -10 5 -29 -27 -21 -35 3 -3 12 0 21 7 10 8 15 9 15 1 0 -6 -5 -11
-11 -11 -5 0 -7 -4 -4 -10 3 -5 0 -7 -9 -4 -11 4 -14 0 -11 -18 4 -20 1 -24
-16 -23 -11 1 -24 7 -29 14 -4 8 -13 10 -20 6 -9 -5 -11 -4 -6 3 4 7 14 12 22
12 12 0 12 3 2 13 -13 14 -44 12 -54 -4 -3 -5 3 -6 13 -2 16 6 16 5 4 -10 -8
-10 -12 -18 -10 -20 2 -1 18 -10 34 -19 28 -16 43 -59 20 -57 -5 0 -13 -8 -17
-18 -7 -16 -8 -16 -5 2 2 11 9 19 16 17 7 -1 10 2 6 8 -4 7 -12 7 -25 0 -16
-9 -18 -7 -14 16 3 16 1 23 -6 19 -5 -3 -10 -1 -10 5 0 6 -5 8 -10 5 -7 -4 -7
-12 0 -25 15 -27 12 -37 -4 -15 -12 17 -13 17 -18 -9 -5 -25 5 -45 15 -29 2 5
2 3 1 -4 -4 -15 20 -35 32 -25 5 4 5 3 1 -3 -5 -5 -12 -10 -15 -10 -4 0 -13
-4 -19 -8 -16 -10 -36 1 -27 14 3 5 10 7 15 4 5 -4 9 -2 9 4 0 5 -9 13 -21 16
-15 5 -17 10 -9 20 7 8 7 16 2 19 -6 3 -12 -4 -15 -15 -4 -16 -11 -20 -24 -15
-9 4 -15 4 -11 1 3 -3 -12 -23 -33 -45 -23 -23 -34 -40 -26 -43 7 -2 19 6 27
19 17 25 27 22 53 -16 22 -32 22 -35 -9 -49 -23 -10 -24 -14 -13 -28 11 -13
11 -15 1 -9 -9 6 -11 1 -8 -18 5 -28 -8 -36 -18 -10 -3 8 -10 12 -16 9 -5 -3
-10 -1 -10 5 0 7 -7 5 -16 -4 -18 -18 -10 -38 12 -29 10 4 17 -2 21 -16 3 -12
10 -18 17 -14 6 4 5 -1 -3 -10 -17 -21 -31 -13 -24 13 4 16 2 19 -11 14 -9 -3
-16 -9 -17 -13 -5 -46 -19 -81 -32 -78 -15 3 -32 19 -40 37 -4 11 -6 11 -6 2
-1 -7 -5 -11 -10 -8 -4 3 -6 -5 -4 -18 3 -13 0 -27 -6 -30 -6 -4 -11 -14 -11
-23 0 -11 6 -14 25 -9 18 5 25 2 25 -8 0 -10 -6 -13 -17 -9 -13 5 -15 3 -9
-12 6 -18 6 -18 -12 -2 -21 19 -42 22 -42 6 0 -5 -4 -8 -9 -4 -16 9 -22 -12
-12 -38 8 -20 6 -27 -6 -31 -9 -4 -21 -1 -26 6 -6 10 -7 8 -4 -4 5 -14 -1 -16
-39 -13 -24 1 -47 -2 -50 -7 -4 -5 3 -8 13 -6 20 3 23 0 23 -28 0 -8 -4 -12
-10 -9 -5 3 -10 -1 -10 -9 0 -9 7 -13 20 -11 11 2 20 -1 20 -7 0 -6 3 -9 6 -6
3 4 1 15 -5 26 -8 15 -7 23 5 33 18 14 45 3 51 -22 3 -8 0 -7 -7 4 -13 20 -35
22 -46 5 -5 -7 -2 -9 8 -5 16 6 47 -37 35 -50 -4 -3 -7 1 -7 10 0 9 -5 19 -11
23 -8 5 -10 -1 -7 -19 3 -15 2 -24 -3 -22 -15 10 -15 -20 0 -33 14 -12 14 -12
-3 -4 -19 10 -47 -9 -59 -39 -4 -9 -6 -8 -6 5 -1 16 -6 14 -31 -13 -23 -24
-32 -28 -36 -17 -3 8 -12 17 -19 20 -9 3 -12 0 -8 -10 3 -7 9 -14 15 -14 5 0
6 -5 3 -11 -4 -6 -13 -8 -21 -5 -18 7 -29 -18 -18 -41 4 -10 7 -21 6 -25 -1
-4 5 -5 14 -1 13 5 13 7 2 14 -10 7 -10 9 0 9 6 0 12 4 12 10 0 5 -7 7 -15 4
-9 -4 -15 0 -15 9 0 20 37 10 50 -13 7 -13 6 -20 -6 -24 -14 -5 -14 -9 -3 -24
13 -15 12 -16 -2 -4 -9 7 -23 11 -30 10 -20 -4 -32 -39 -18 -52 9 -8 10 -7 6
6 -3 9 0 19 9 22 9 3 12 1 9 -4 -3 -6 0 -10 8 -10 8 0 17 -7 21 -15 7 -18 -5
-20 -23 -2 -9 7 -11 7 -8 1 4 -7 1 -14 -6 -16 -15 -6 -59 16 -50 25 3 4 1 7
-6 7 -8 0 -11 -7 -7 -15 5 -13 -5 -20 -26 -16 -5 0 -8 -4 -8 -10 0 -5 -4 -7
-10 -4 -5 3 -10 -1 -10 -9 0 -9 5 -16 10 -16 6 0 10 4 10 9 0 5 8 11 18 15 9
3 24 9 32 12 13 5 13 4 0 -5 -13 -10 -13 -12 0 -21 10 -6 11 -10 3 -10 -20 0
-15 -30 5 -31 13 0 14 -2 2 -6 -8 -3 -18 -11 -22 -16 -4 -6 -12 -4 -23 6 -20
21 -26 21 -19 2 4 -8 10 -15 15 -15 5 0 9 -8 9 -17 0 -15 -2 -16 -10 -3 -8 13
-10 12 -10 -2 0 -10 4 -18 10 -18 5 0 13 8 19 18 8 14 12 15 23 3 9 -10 10
-12 1 -7 -7 4 -13 2 -13 -4 0 -5 -16 -18 -35 -27 -31 -15 -33 -18 -17 -30 15
-11 13 -12 -11 -3 -34 12 -58 13 -40 2 6 -4 16 -19 22 -34 8 -21 7 -28 -5 -32
-23 -9 -31 -7 -15 3 11 7 10 13 -5 36 -12 19 -19 23 -23 14 -2 -8 -9 -17 -15
-21 -7 -5 -2 -15 14 -30 31 -29 36 -48 10 -41 -15 4 -21 -1 -25 -23 -4 -16 -9
-36 -12 -44 -4 -8 -5 -21 -4 -27 1 -7 -3 -13 -9 -13 -5 0 -10 -7 -10 -16 0 -8
-4 -13 -9 -9 -14 8 -5 -77 14 -135 33 -101 121 -182 280 -262 44 -22 83 -46
87 -52 4 -6 8 -31 8 -56 0 -25 9 -128 20 -230 68 -644 187 -1255 351 -1795
500 -1655 1344 -2959 2643 -4089 347 -302 634 -519 1242 -941 165 -114 346
-244 404 -288 436 -334 723 -686 843 -1030 28 -81 31 -105 32 -202 0 -129 -17
-178 -84 -242 -136 -133 -496 -230 -1170 -318 -222 -29 -303 -30 -451 -10 -58
9 -222 18 -365 22 -403 9 -591 -13 -909 -111 -96 -30 -213 -60 -261 -67 -75
-12 -89 -17 -101 -39 -13 -23 -14 -23 -9 -2 8 27 -11 30 -20 2 -4 -11 -10 -18
-14 -16 -4 3 -19 -1 -34 -9 -15 -8 -27 -10 -27 -5 0 4 6 11 13 13 9 4 9 6 0 6
-7 1 -17 -8 -24 -20 -7 -14 -17 -19 -30 -16 -10 3 -19 1 -19 -4 0 -5 -7 -9
-15 -9 -8 0 -15 5 -15 10 0 7 -6 7 -17 2 -27 -14 -92 -22 -98 -13 -11 19 -53
8 -64 -16 -22 -49 -10 -73 53 -105 l29 -15 -119 -37 c-379 -117 -585 -223
-1001 -518 l-92 -65 -93 -7 c-51 -3 -106 -9 -123 -11 -16 -3 -57 -10 -90 -16
-189 -33 -455 -160 -747 -356 -37 -25 -199 -163 -273 -233 -31 -30 -58 -43
-120 -60 -375 -103 -684 -221 -880 -338 -192 -114 -433 -335 -581 -532 -303
-403 -475 -902 -474 -1373 2 -795 472 -1716 1013 -1985 212 -106 352 -125 742
-102 419 25 618 77 1389 364 82 30 152 53 156 51 4 -2 10 -251 13 -552 9 -760
18 -968 97 -2163 62 -934 65 -1017 65 -1735 -1 -768 -20 -1144 -85 -1700 -125
-1061 -270 -1638 -600 -2390 -223 -508 -371 -927 -623 -1765 -401 -1331 -619
-2175 -671 -2600 -25 -195 -36 -422 -36 -710 0 -637 69 -1268 375 -3405 147
-1028 159 -1141 159 -1415 -1 -233 -13 -299 -82 -445 -38 -79 -192 -332 -300
-495 -72 -107 -227 -268 -362 -377 -111 -90 -392 -280 -525 -355 -312 -177
-688 -328 -1091 -437 -216 -59 -322 -78 -474 -85 -296 -15 -631 -56 -839 -102
-567 -127 -884 -351 -1322 -934 -396 -527 -649 -1015 -788 -1524 -108 -392
-162 -869 -132 -1151 42 -388 158 -559 534 -781 62 -37 113 -70 115 -75 2 -5
8 -9 13 -9 5 0 42 -22 82 -49 68 -47 286 -161 335 -176 12 -3 22 -11 22 -17 0
-6 3 -9 6 -5 3 3 18 1 33 -5 171 -69 538 -185 708 -224 184 -42 271 -60 473
-98 74 -14 327 -51 487 -71 273 -35 896 -41 1138 -11 348 43 636 112 935 226
194 74 413 172 564 254 27 14 55 26 62 26 7 0 14 4 16 8 4 12 160 102 175 102
7 0 13 4 13 8 0 5 17 17 37 28 20 10 59 34 87 51 28 18 56 33 62 33 7 0 14 4
16 8 2 4 80 57 173 116 94 60 195 126 225 148 30 22 67 44 83 51 15 6 27 15
27 19 0 4 7 8 15 8 8 0 15 4 15 10 0 5 24 24 54 40 30 17 60 38 66 45 7 8 16
15 21 15 5 0 42 22 82 50 41 27 77 50 82 50 4 0 28 15 54 34 43 31 268 162
336 196 17 8 32 18 35 21 7 8 69 40 72 37 2 -2 17 7 33 18 39 28 422 215 600
294 77 34 158 70 180 80 22 10 60 26 85 35 25 10 54 21 65 25 11 4 45 19 75
33 30 13 73 30 95 37 22 7 45 16 50 20 6 5 62 26 125 48 63 22 140 50 170 62
63 24 395 142 485 171 33 11 74 24 90 30 17 5 190 63 385 129 405 136 461 156
510 177 56 24 71 31 135 57 134 55 300 162 317 204 1 5 49 32 105 61 127 67
239 155 304 240 131 173 220 452 265 831 21 173 24 560 5 720 -50 440 -173
859 -329 1127 -23 38 -93 137 -156 218 -137 177 -192 268 -246 403 -52 129
-79 249 -86 387 -12 210 28 358 243 910 562 1441 1060 2951 1177 3572 51 271
56 419 21 608 -24 125 -17 233 24 353 133 395 758 1309 1243 1817 94 99 250
240 342 310 l38 29 84 -43 c436 -223 733 -703 1095 -1771 126 -370 214 -688
304 -1099 159 -728 274 -1063 847 -2466 133 -326 739 -1788 895 -2160 114
-270 224 -560 253 -662 36 -126 38 -204 10 -319 -53 -221 -191 -480 -415 -779
-179 -238 -242 -356 -331 -619 -102 -299 -168 -611 -195 -925 -15 -172 -6
-594 15 -759 35 -267 95 -491 172 -644 96 -191 201 -300 444 -464 76 -51 154
-113 198 -159 40 -41 85 -82 100 -89 15 -8 42 -28 59 -45 18 -16 42 -32 53
-36 11 -3 20 -10 20 -15 0 -5 20 -19 45 -31 25 -12 45 -26 45 -30 0 -3 14 -13
32 -20 17 -7 51 -28 75 -46 24 -18 46 -33 49 -33 3 0 31 -17 62 -37 88 -57 96
-62 115 -69 9 -3 17 -10 17 -14 0 -4 14 -13 30 -20 17 -7 30 -16 30 -21 0 -5
5 -9 12 -9 13 0 91 -50 96 -62 2 -4 19 -15 38 -24 19 -9 34 -20 34 -25 0 -5 7
-9 15 -9 8 0 15 -4 15 -10 0 -5 5 -10 11 -10 6 0 25 -11 43 -25 17 -14 36 -29
42 -34 23 -19 52 -30 59 -23 5 4 5 2 2 -5 -4 -6 7 -20 26 -32 19 -11 45 -31
59 -43 24 -21 38 -32 97 -78 63 -49 111 -89 146 -126 22 -23 49 -43 59 -45 29
-6 82 -110 122 -239 202 -654 366 -988 658 -1340 72 -87 252 -263 351 -343 94
-76 315 -227 332 -227 4 0 20 -10 35 -23 14 -12 35 -29 45 -37 50 -40 381
-190 453 -205 8 -2 56 -14 105 -28 413 -116 1085 -147 1900 -86 372 27 1158
133 1335 179 19 5 103 23 186 39 138 28 329 74 474 115 30 8 66 18 80 21 14 4
34 10 45 15 11 4 81 27 155 51 74 23 171 57 215 74 81 33 102 42 208 89 32 14
62 26 66 26 5 0 11 3 13 8 2 4 28 20 58 36 30 16 76 44 101 63 26 18 51 33 57
33 5 0 15 7 22 15 7 8 45 33 85 55 251 139 421 318 553 585 298 602 308 1310
28 2007 -160 400 -359 718 -725 1158 -168 203 -405 444 -541 552 -234 186
-424 287 -732 388 -96 31 -164 62 -281 129 -486 279 -1239 821 -1642 1182
-226 203 -508 501 -638 675 -78 103 -170 281 -195 374 -27 103 -22 396 11 685
76 654 97 1141 91 2125 -5 862 -22 1263 -75 1820 -17 180 -57 435 -108 695
-51 254 -94 520 -131 810 -11 88 -45 345 -75 570 -174 1312 -255 2036 -320
2855 -33 428 -41 560 -65 1030 -32 661 -58 1039 -86 1285 -62 543 -137 944
-290 1540 -46 182 -124 488 -173 680 -98 383 -157 650 -196 887 -27 163 -55
426 -55 515 0 49 2 53 24 53 13 0 125 -20 248 -45 207 -43 357 -79 968 -235
514 -131 821 -179 1216 -187 667 -15 1299 130 1923 441 245 122 642 343 1016
566 192 115 1230 730 1535 910 146 87 400 237 565 334 165 98 485 286 711 417
l412 240 138 -7 c341 -16 648 55 1202 278 193 77 282 109 300 105 15 -3 92
-33 171 -67 535 -227 1057 -343 1676 -369 121 -6 434 -7 695 -4 449 5 833 -6
865 -25 7 -4 68 -74 137 -157 487 -584 959 -956 2218 -1752 374 -236 549 -338
751 -438 154 -75 366 -161 376 -151 2 2 -26 14 -64 27 -153 50 -534 257 -878
475 -71 46 -161 103 -200 127 -271 171 -376 239 -572 369 -715 474 -1103 798
-1487 1243 -217 251 -435 536 -821 1075 -355 496 -446 621 -500 695 -28 39
-75 104 -105 145 -605 837 -1525 1965 -2334 2864 -465 516 -993 1057 -1681
1722 -181 176 -577 567 -880 869 -533 534 -707 699 -980 931 -750 637 -1512
1018 -2202 1099 -220 26 -523 16 -803 -25 -117 -17 -373 -60 -390 -65 -42 -12
-513 -86 -635 -99 -456 -49 -809 -12 -1515 160 -565 138 -688 164 -915 195
-193 27 -592 34 -770 13 -169 -19 -219 -25 -225 -29 -8 -5 -120 -18 -157 -19
-17 -1 -29 -4 -26 -8 2 -5 -6 -8 -19 -9 -13 0 -32 -3 -43 -5 -11 -3 -34 -6
-52 -6 -18 -1 -30 -6 -26 -11 3 -5 -13 -6 -42 -3 -31 5 -45 3 -40 -4 3 -5 1
-10 -5 -10 -6 0 -8 -5 -4 -12 6 -10 5 -10 -8 -1 -8 7 -18 10 -22 6 -4 -4 -4 0
-1 9 7 16 40 29 84 32 14 1 26 7 29 14 2 7 9 9 14 6 7 -5 8 -2 3 5 -5 9 -11 9
-17 3 -6 -6 -17 -8 -24 -5 -8 3 -14 0 -14 -6 0 -6 -6 -8 -13 -5 -17 6 -273
-77 -515 -167 -103 -38 -225 -77 -272 -86 -47 -9 -197 -42 -335 -75 -331 -78
-339 -80 -323 -60 18 22 173 135 298 219 116 77 378 234 655 393 508 291 828
496 1115 714 592 449 1071 955 1438 1521 47 72 86 132 88 134 2 2 81 -35 176
-82 95 -48 245 -119 333 -158 195 -86 366 -181 483 -268 102 -77 149 -123 253
-246 91 -109 116 -124 162 -98 40 23 67 75 67 129 0 23 -11 95 -24 160 -23
113 -54 208 -195 612 -33 94 -58 172 -55 172 3 0 -1 10 -7 22 -17 31 -94 280
-144 463 -7 28 -23 86 -36 130 -12 44 -25 96 -29 115 -5 19 -22 89 -40 155
-18 66 -35 136 -40 155 -9 41 -53 182 -69 223 -6 15 -8 27 -5 27 4 0 2 6 -3
13 -6 6 -20 42 -32 79 -26 79 -26 81 34 268 154 479 294 1062 379 1580 38 230
86 590 86 642 0 27 15 45 101 126 167 158 300 333 392 519 89 178 123 328 126
553 2 206 -29 368 -106 543 -144 331 -399 590 -808 822 -129 74 -446 220 -595
276 -41 15 -106 39 -145 54 -298 111 -959 301 -1250 359 -16 4 -41 9 -55 12
-14 3 -36 8 -50 11 -14 2 -65 13 -115 23 -167 35 -495 90 -615 104 -25 3 -94
12 -155 21 -60 9 -150 20 -200 25 -49 5 -108 12 -130 14 -49 6 -149 15 -235
21 -36 2 -96 7 -135 10 -589 42 -1408 38 -2140 -10 -327 -22 -874 -68 -1050
-89 -53 -7 -166 -18 -209 -21 -36 -3 -323 -36 -431 -50 -172 -22 -442 -55
-495 -60 -36 -3 -76 -8 -90 -10 -14 -2 -56 -7 -95 -10 -38 -3 -110 -9 -160
-15 -134 -14 -303 -31 -360 -35 -114 -9 -211 -18 -228 -21 -10 -2 -52 -4 -93
-6 -42 -1 -77 -5 -79 -8 -2 -4 -75 -7 -162 -8 -87 -1 -158 -2 -158 -3 0 -4
-191 -8 -370 -8 -110 0 -248 0 -307 0 -60 0 -108 3 -108 7 0 4 -28 7 -63 8
-83 1 -162 10 -176 19 -7 3 -18 2 -25 -4 -9 -7 -16 -7 -24 1 -7 7 -12 8 -12 3
0 -4 -10 0 -22 11 -12 10 -18 13 -14 7 9 -16 -20 -18 -29 -3 -5 7 -11 8 -19 1
-7 -6 -17 -6 -26 -1 -8 5 -22 7 -32 4 -9 -2 -19 0 -22 5 -4 6 -22 8 -42 5 -25
-3 -33 -1 -28 8 5 8 -4 9 -34 4 -28 -4 -54 -1 -76 8 -19 8 -37 12 -40 8 -3 -3
-6 -1 -6 5 0 6 -15 9 -35 7 -19 -1 -35 1 -35 5 0 5 -13 7 -29 5 -18 -2 -31 2
-34 11 -3 7 -14 12 -24 10 -10 -2 -18 -4 -18 -5 0 -1 -10 -3 -22 -6 -13 -2
-23 1 -23 6 0 6 -7 10 -15 10 -8 0 -15 7 -15 15 0 10 -9 15 -27 13 -45 -3 -73
11 -74 35 0 21 -1 21 -10 -2 l-10 -24 -20 21 c-22 24 -49 29 -49 10 0 -9 -4
-8 -10 2 -5 8 -10 11 -10 5 0 -5 -5 -3 -10 7 -7 10 -17 14 -32 10 -13 -3 -19
-1 -15 5 4 6 -4 8 -20 5 -18 -3 -24 -1 -19 7 5 7 0 11 -13 11 -12 0 -21 4 -21
9 0 5 -9 7 -20 4 -11 -3 -20 0 -20 6 0 18 -18 13 -23 -6 -4 -16 -5 -16 -6 -1
-1 11 -7 15 -21 11 -14 -4 -20 0 -20 10 0 17 -35 41 -48 33 -4 -2 -23 4 -42
15 -19 10 -28 18 -20 19 12 0 11 3 -3 11 -23 14 -42 2 -26 -17 8 -10 8 -14 0
-14 -6 0 -11 5 -11 10 0 7 -6 7 -19 0 -31 -16 -36 -12 -11 10 18 16 20 20 7
20 -10 0 -17 6 -17 13 0 7 -8 13 -19 13 -12 0 -17 -5 -13 -15 3 -9 1 -12 -5
-8 -6 4 -14 2 -16 -3 -3 -6 -4 -5 -3 2 1 7 -2 18 -8 24 -11 12 -46 7 -46 -7 0
-5 -4 -9 -10 -9 -5 0 -7 7 -4 15 4 8 2 15 -3 15 -5 0 -16 13 -26 29 -13 23
-22 28 -40 23 -12 -3 -24 -9 -27 -13 -3 -4 -14 0 -25 8 -16 13 -17 15 -2 10
25 -9 21 -2 -9 18 -27 17 -27 17 -21 -5 4 -17 2 -20 -10 -16 -12 5 -14 1 -10
-15 3 -12 2 -18 -2 -13 -5 5 -11 23 -14 41 -5 25 -3 31 7 27 8 -3 17 -1 20 4
3 5 -10 8 -29 6 -32 -2 -40 4 -36 29 0 4 -8 7 -19 7 -11 0 -20 3 -20 8 0 4
-19 7 -42 6 -24 -1 -52 5 -63 12 -11 8 -16 14 -11 14 5 0 3 7 -4 15 -8 10 -16
12 -20 6 -7 -13 -80 -2 -80 11 0 5 -5 6 -11 3 -6 -5 -4 -12 8 -22 17 -14 17
-14 0 -9 -10 3 -23 6 -28 6 -12 0 -12 47 1 55 6 3 10 1 10 -6 0 -7 3 -10 6 -6
11 11 -6 25 -24 20 -14 -3 -18 -12 -15 -31 2 -15 1 -22 -2 -16 -3 7 -15 9 -27
6 -18 -4 -20 -2 -14 24 3 16 1 36 -4 44 -9 12 -10 12 -8 -5 2 -13 -4 -21 -17
-23 -11 -3 -23 -9 -27 -16 -4 -6 -6 12 -3 41 3 33 1 54 -6 59 -8 5 -9 3 -4 -6
6 -10 1 -12 -23 -7 -18 4 -44 2 -60 -4 -15 -6 -29 -10 -32 -10 -10 1 -7 41 3
41 6 0 8 3 4 6 -3 3 -14 1 -24 -5 -11 -6 -13 -11 -5 -11 7 0 11 -4 7 -10 -10
-16 -37 1 -32 21 3 12 0 19 -9 19 -8 0 -11 -6 -7 -17 3 -10 3 -15 -1 -11 -5 4
-18 3 -30 -2 -23 -8 -25 -5 -27 43 0 9 -5 15 -10 11 -6 -3 -8 -13 -5 -21 4
-10 0 -13 -12 -11 -9 2 -17 11 -16 19 1 11 -6 14 -27 11 -17 -2 -29 0 -29 7 0
6 -6 8 -14 5 -16 -6 -56 24 -56 43 0 16 9 16 40 -2 33 -19 40 -18 40 3 0 13
-2 14 -9 4 -6 -11 -14 -8 -34 12 l-26 26 -15 -22 c-8 -12 -13 -25 -10 -30 4
-5 -3 -4 -14 3 -11 7 -18 18 -15 25 2 6 -1 15 -8 20 -8 4 -10 3 -5 -4 10 -17
-3 -35 -17 -23 -17 13 -50 17 -65 7 -7 -4 -29 1 -53 13 -21 12 -43 20 -47 20
-4 -1 -9 0 -12 1 -6 3 -95 10 -133 10 -15 1 -25 5 -22 10 4 6 4 10 1 10 -3 0
-8 -5 -11 -10z m-345 -134 c0 -2 -7 -6 -15 -10 -8 -3 -15 -1 -15 4 0 6 7 10
15 10 8 0 15 -2 15 -4z m1100 -80 c0 -2 -7 -7 -16 -10 -8 -3 -12 -2 -9 4 6 10
25 14 25 6z m62 -27 l-9 -23 -11 21 c-10 18 -9 22 6 25 23 6 24 5 14 -23z
m262 -104 c-7 -16 -24 -21 -24 -6 0 8 7 13 27 20 1 1 0 -6 -3 -14z m-94 -5 c8
-5 11 -10 5 -10 -5 0 -17 5 -25 10 -8 5 -10 10 -5 10 6 0 17 -5 25 -10z m90
-27 c0 -10 -20 -40 -20 -31 0 3 -3 13 -6 22 -4 11 -1 16 10 16 9 0 16 -3 16
-7z m57 -40 c-11 -10 -26 8 -20 23 5 15 7 14 15 -1 6 -9 7 -19 5 -22z m58 26
c11 -16 1 -19 -13 -3 -7 8 -8 14 -3 14 5 0 13 -5 16 -11z m32 -31 c-3 -8 -6
-5 -6 6 -1 11 2 17 5 13 3 -3 4 -12 1 -19z m50 -60 c-3 -8 -6 -5 -6 6 -1 11 2
17 5 13 3 -3 4 -12 1 -19z m145 -13 c3 3 11 -2 19 -12 12 -15 12 -16 -3 -10
-10 3 -18 2 -18 -2 0 -5 -10 -7 -22 -3 -16 4 -19 2 -13 -9 7 -12 6 -12 -6 0
-11 10 -11 15 -1 18 6 3 12 12 12 20 0 12 3 13 13 4 8 -6 16 -9 19 -6z m258
-121 c0 -8 -5 -12 -10 -9 -6 4 -8 11 -5 16 9 14 15 11 15 -7z m51 -9 c19 -8
31 -14 27 -15 -3 0 -14 -3 -24 -7 -12 -4 -15 -3 -10 5 4 7 1 12 -8 12 -8 0
-18 5 -21 10 -8 13 -3 13 36 -5z m79 -51 c0 -8 -19 -13 -24 -6 -3 5 1 9 9 9 8
0 15 -2 15 -3z m110 -19 c0 -1 -8 -5 -18 -7 -11 -3 -19 0 -19 7 0 7 8 10 19 7
10 -2 18 -6 18 -7z m165 -44 c3 -5 1 -12 -5 -16 -5 -3 -10 1 -10 9 0 18 6 21
15 7z m-2990 -31 c-3 -5 -11 -10 -16 -10 -6 0 -7 5 -4 10 3 6 11 10 16 10 6 0
7 -4 4 -10z m-92 -105 c-3 -9 -8 -14 -10 -11 -3 3 -2 9 2 15 9 16 15 13 8 -4z
m-113 -206 c0 -5 -7 -9 -15 -9 -9 0 -15 9 -15 21 0 18 2 19 15 9 8 -7 15 -16
15 -21z m-19 -38 c7 11 9 10 9 -3 0 -12 -8 -18 -21 -18 -13 0 -18 -4 -13 -12
5 -9 2 -8 -9 1 -16 13 -16 14 0 27 12 8 19 9 22 2 2 -6 7 -5 12 3z m-52 -70
c9 -6 10 -11 2 -15 -6 -4 -11 -2 -11 4 0 6 -4 9 -9 5 -5 -3 -12 -1 -16 5 -8
12 15 13 34 1z m-46 -11 c8 0 7 -4 -1 -12 -9 -10 -16 -8 -30 6 -16 18 -16 19
1 12 10 -3 24 -6 30 -6z m7692 -20 c25 -9 25 -11 19 -75 -5 -46 -3 -65 5 -65
18 0 12 -29 -9 -40 -20 -11 -18 -37 4 -52 7 -5 7 -8 -1 -8 -7 0 -13 -4 -13
-10 0 -5 7 -10 15 -10 24 0 17 -17 -9 -22 -34 -7 -73 31 -72 69 1 21 -6 31
-28 43 -17 8 -30 24 -31 35 -1 11 -5 29 -8 40 -13 38 6 78 44 91 43 16 52 16
84 4z m-7685 -25 c10 -13 9 -15 -11 -14 -13 0 -18 3 -11 6 6 2 10 9 6 14 -9
15 2 10 16 -6z m-45 -55 c3 -5 1 -10 -6 -10 -6 0 -9 -8 -6 -20 3 -11 1 -18 -4
-14 -5 3 -9 12 -9 21 0 9 -6 13 -15 9 -8 -3 -15 -1 -15 4 0 7 16 14 42 19 4 0
10 -3 13 -9z m-30 -58 c-3 -3 -11 0 -18 7 -9 10 -8 11 6 5 10 -3 15 -9 12 -12z
m-7 -43 c-20 -13 -28 -11 -22 5 3 8 12 12 21 9 12 -5 12 -7 1 -14z m-151 -141
c-3 -8 -6 -5 -6 6 -1 11 2 17 5 13 3 -3 4 -12 1 -19z m60 5 c-4 -3 -1 -13 6
-22 10 -14 10 -14 -4 -4 -9 7 -20 9 -25 5 -4 -4 -2 1 5 11 7 9 16 17 19 17 3
0 2 -3 -1 -7z m-124 -19 c-7 -3 -10 -11 -7 -19 3 -7 0 -16 -7 -21 -9 -5 -10
-2 -6 10 5 14 3 17 -8 12 -8 -3 -15 -1 -15 4 0 5 8 11 18 13 23 6 40 7 25 1z
m137 -28 c0 -3 -4 -8 -10 -11 -5 -3 -10 -1 -10 4 0 6 5 11 10 11 6 0 10 -2 10
-4z m-90 -26 c0 -5 -4 -10 -10 -10 -5 0 -10 5 -10 10 0 6 5 10 10 10 6 0 10
-4 10 -10z m-9 -37 c13 -16 12 -17 -3 -4 -10 7 -18 15 -18 17 0 8 8 3 21 -13z
m-10 -50 c-12 -20 -14 -14 -5 12 4 9 9 14 11 11 3 -2 0 -13 -6 -23z m-48 -88
c-10 -8 -20 -11 -23 -9 -2 3 2 9 9 13 8 6 10 14 5 22 -6 12 -5 12 9 0 16 -13
16 -14 0 -26z m-73 -55 c0 -5 -5 -10 -11 -10 -5 0 -7 5 -4 10 3 6 8 10 11 10
2 0 4 -4 4 -10z m-72 -31 c9 -12 9 -16 -1 -16 -6 0 -21 -4 -31 -9 -15 -6 -17
-4 -11 7 9 14 30 38 30 35 1 0 6 -8 13 -17z m88 -4 c-3 -20 -13 -28 -26 -20
-8 5 -5 11 7 21 23 17 22 17 19 -1z m-51 -22 c-2 -10 -4 -21 -4 -24 -1 -7 -31
-8 -31 -1 0 6 31 42 36 42 1 0 1 -8 -1 -17z m-115 -54 c0 7 5 9 10 6 6 -4 4
-12 -6 -22 -13 -14 -17 -14 -25 -2 -14 22 -11 33 6 19 11 -9 15 -9 15 -1z m90
-9 c0 -5 -5 -10 -11 -10 -5 0 -7 5 -4 10 3 6 8 10 11 10 2 0 4 -4 4 -10z m-55
-30 c3 -5 1 -10 -4 -10 -6 0 -11 5 -11 10 0 6 2 10 4 10 3 0 8 -4 11 -10z m35
-15 c7 -9 8 -15 2 -15 -5 0 -12 7 -16 15 -3 8 -4 15 -2 15 2 0 9 -7 16 -15z
m-88 -60 c-2 -15 0 -25 7 -25 6 0 11 -5 11 -12 0 -24 -27 17 -34 51 -5 27 -4
31 8 22 7 -6 11 -22 8 -36z m-56 -116 c19 -22 19 -22 -6 -14 -32 9 -33 11 -25
24 8 15 9 14 31 -10z m-19 -48 c0 -11 -5 -18 -9 -15 -4 3 -5 11 -1 19 7 21 12
19 10 -4z m-93 -37 c3 -8 2 -12 -4 -9 -6 3 -10 10 -10 16 0 14 7 11 14 -7z
m16 -38 c0 -9 -7 -12 -20 -9 -11 3 -17 9 -14 14 8 14 34 10 34 -5z m-245 -306
c3 -5 -1 -10 -9 -10 -9 0 -16 5 -16 10 0 6 4 10 9 10 6 0 13 -4 16 -10z
m12305 -8220 c0 -5 -2 -10 -4 -10 -3 0 -8 5 -11 10 -3 6 -1 10 4 10 6 0 11 -4
11 -10z m-3364 -1431 c3 -5 -23 -8 -58 -8 -35 1 -55 3 -45 6 9 2 17 8 17 11 0
11 79 2 86 -9z m-461 -219 c-3 -5 -16 -10 -28 -9 -21 0 -21 1 -2 9 28 12 37
12 30 0z m2246 -774 c35 -15 113 -91 142 -138 68 -110 87 -273 46 -398 -27
-85 -54 -123 -101 -143 -84 -37 -129 -18 -202 83 -70 96 -101 203 -91 308 24
246 89 337 206 288z m-1177 -1036 c60 -12 136 -42 136 -52 0 -5 6 -8 13 -8 33
0 114 -135 108 -182 -1 -9 2 -19 7 -22 11 -6 -4 -152 -20 -191 -16 -40 -32
-55 -60 -55 -13 0 -52 -14 -87 -29 -60 -27 -71 -29 -150 -24 -186 12 -252 4
-324 -36 -21 -12 -44 -21 -51 -21 -7 0 -39 -13 -72 -29 -32 -15 -110 -50 -171
-76 -62 -26 -113 -50 -113 -54 0 -7 -58 -34 -62 -29 -2 2 -11 -4 -21 -12 -10
-8 -23 -20 -30 -25 -14 -12 -181 -95 -190 -95 -4 0 -29 -14 -57 -31 -27 -17
-54 -28 -60 -24 -5 3 -10 -1 -10 -10 0 -9 -12 -18 -30 -21 -16 -4 -30 -10 -30
-15 0 -5 -7 -9 -15 -9 -8 0 -15 -5 -15 -11 0 -5 -4 -8 -9 -4 -5 3 -12 1 -15
-3 -3 -5 -35 -24 -71 -43 -36 -18 -65 -36 -65 -39 0 -4 -30 -22 -67 -40 -38
-19 -93 -50 -123 -69 -30 -19 -60 -34 -67 -34 -7 0 -13 -4 -13 -9 0 -4 -6 -8
-14 -8 -8 0 -22 -8 -32 -17 -10 -10 -20 -18 -24 -18 -3 0 -50 -28 -103 -63
-54 -34 -109 -68 -122 -74 -14 -6 -25 -14 -25 -18 0 -4 -16 -15 -35 -26 -19
-10 -35 -22 -35 -26 0 -5 -6 -8 -13 -8 -8 0 -19 -11 -25 -25 -12 -25 -65 -59
-76 -48 -3 4 -6 2 -6 -3 0 -5 -17 -18 -37 -29 -21 -11 -49 -30 -63 -42 -14
-13 -29 -23 -35 -23 -5 -1 -39 -28 -75 -62 -36 -34 -84 -73 -108 -88 -38 -25
-47 -27 -84 -18 -23 5 -49 17 -57 27 -9 10 -31 26 -49 35 -47 24 -67 41 -163
137 -78 77 -138 157 -143 191 -1 7 -4 18 -7 23 -14 25 -8 106 13 170 24 73 63
145 79 145 5 0 9 4 9 10 0 16 172 180 189 180 5 0 24 14 42 30 30 27 120 81
134 80 3 0 28 15 55 34 28 19 60 38 72 42 11 3 46 23 78 43 31 20 92 52 136
71 43 19 82 38 85 43 3 5 9 8 12 8 17 -1 95 39 122 63 17 14 55 34 85 43 95
28 174 54 207 69 17 8 36 14 42 14 16 0 105 43 109 52 2 4 9 8 15 8 7 0 30 9
52 19 44 21 269 95 325 106 19 4 40 11 45 15 6 4 28 13 50 20 22 7 67 25 100
40 33 15 104 40 159 54 54 15 124 39 155 53 120 54 194 74 296 80 55 3 101 6
102 7 8 6 258 -5 297 -14z m8598 -6480 l-4 -49 39 5 c28 4 34 3 23 -5 -12 -9
-12 -11 -1 -11 7 0 25 -12 38 -26 20 -21 30 -25 55 -20 18 3 39 13 48 21 9 8
22 15 28 15 7 0 12 8 12 18 0 14 9 17 48 17 29 0 51 -5 58 -13 8 -12 14 -12
30 -2 16 10 28 9 64 -3 39 -13 48 -14 67 -1 32 20 51 17 55 -8 2 -17 11 -24
32 -26 16 -2 33 1 38 6 15 15 38 3 39 -22 1 -16 2 -17 6 -3 5 18 23 24 23 6 0
-6 -5 -19 -10 -29 -8 -16 -5 -22 20 -37 16 -9 30 -23 30 -30 0 -7 5 -13 12
-13 6 0 19 -7 28 -15 13 -12 27 -13 78 -4 34 6 62 16 62 23 0 7 4 6 9 -3 6 -9
16 -11 32 -5 13 4 27 7 30 6 4 0 29 7 56 17 32 12 70 17 104 15 30 -2 45 -1
35 2 -14 5 -16 8 -6 14 14 9 48 -19 43 -36 -3 -7 8 -11 25 -10 16 1 28 6 25
11 -3 11 8 13 66 18 16 1 27 4 25 6 -7 7 87 30 124 31 20 0 32 5 32 14 0 15
21 26 48 26 8 0 35 9 58 20 23 11 68 22 101 24 33 2 74 11 92 21 18 9 30 12
27 6 -4 -6 0 -11 8 -11 9 0 16 5 16 11 0 8 4 8 14 0 8 -7 25 -10 38 -8 12 2
17 2 10 0 -20 -7 -4 -22 18 -16 20 5 26 -8 20 -47 -1 -11 3 -10 18 5 11 11 18
22 17 25 -2 3 14 13 35 22 34 14 41 14 59 1 17 -11 18 -17 8 -27 -6 -8 -15
-12 -18 -10 -4 2 -9 -3 -13 -11 -3 -8 0 -15 7 -15 7 0 -3 -9 -20 -20 -23 -14
-31 -24 -26 -36 5 -14 2 -16 -16 -11 -16 4 -21 1 -19 -11 2 -9 -8 -22 -24 -30
-16 -7 -28 -17 -28 -22 0 -5 -14 -11 -31 -15 -19 -4 -29 -12 -25 -20 3 -9 -2
-11 -15 -8 -10 3 -19 0 -19 -6 0 -6 -15 -14 -32 -19 -25 -6 -32 -13 -30 -28 2
-15 -6 -23 -31 -32 -18 -7 -39 -12 -45 -12 -20 0 -92 -52 -86 -61 3 -5 -4 -9
-16 -9 -11 0 -28 -9 -37 -20 -10 -11 -23 -20 -31 -20 -7 0 -15 -7 -18 -15 -4
-8 -15 -15 -26 -15 -11 0 -26 -6 -33 -12 -26 -23 -40 -33 -80 -55 -22 -11 -58
-31 -80 -44 -22 -13 -63 -35 -91 -50 -28 -14 -72 -40 -97 -58 -25 -17 -50 -31
-56 -31 -5 0 -16 -6 -24 -14 -11 -12 -50 -31 -217 -110 -8 -4 -37 -20 -65 -36
-27 -16 -68 -38 -90 -49 -22 -11 -47 -25 -55 -29 -24 -14 -141 -68 -180 -83
-19 -7 -37 -16 -40 -19 -3 -3 -32 -14 -65 -24 -33 -10 -94 -33 -135 -51 -41
-18 -97 -41 -125 -51 -27 -9 -54 -21 -59 -26 -6 -4 -19 -8 -31 -8 -12 0 -25
-4 -30 -9 -6 -5 -39 -17 -75 -26 -35 -9 -72 -20 -80 -25 -9 -5 -60 -16 -115
-25 -55 -9 -117 -22 -137 -30 -20 -8 -117 -30 -215 -50 -155 -30 -187 -34
-248 -26 -38 4 -85 4 -105 0 -60 -14 -155 -10 -242 11 -46 11 -99 20 -118 20
-19 0 -47 6 -62 14 -19 10 -29 11 -37 3 -8 -8 -11 -8 -11 0 0 15 -24 24 -90
33 -137 20 -172 33 -221 83 -34 34 -53 47 -75 47 -20 0 -25 3 -15 9 9 6 10 11
2 15 -6 4 -15 4 -21 1 -5 -3 -10 -1 -10 4 0 6 -7 11 -15 11 -9 0 -18 7 -21 15
-4 8 -12 15 -20 15 -10 0 -8 10 8 43 12 23 24 44 27 47 4 3 8 14 9 25 2 11 8
23 14 26 5 3 9 17 10 30 1 48 67 241 89 260 16 15 17 18 4 29 -13 11 -13 14 2
25 22 16 28 55 8 55 -17 0 -18 2 -9 24 3 9 17 16 29 16 19 0 24 7 30 40 4 22
11 40 15 40 5 0 10 12 12 27 2 16 10 27 21 29 23 3 19 -3 43 69 14 46 24 61
40 63 12 2 27 14 34 28 7 13 17 24 22 24 4 0 17 9 28 20 11 11 26 17 35 14 18
-7 48 14 39 27 -3 5 2 9 11 9 8 0 20 11 26 24 8 17 19 24 38 24 53 -1 61 2 61
22 0 17 7 20 45 20 30 0 47 5 53 16 12 22 101 32 113 13 7 -11 12 -12 26 -1
10 7 26 15 36 18 9 4 17 13 17 20 0 8 8 14 18 14 10 0 28 7 40 16 12 8 30 14
40 12 9 -1 23 1 30 5 9 6 16 -1 23 -22 10 -28 15 -31 51 -31 28 0 39 4 35 13
-3 9 10 11 54 9 41 -3 59 0 59 8 0 7 -7 10 -15 6 -10 -3 -15 1 -15 13 0 13 7
19 25 19 15 0 25 -6 25 -14 0 -17 17 -18 22 -2 3 8 18 12 40 10 20 -2 39 1 43
7 9 16 25 14 25 -3 0 -18 48 -30 65 -16 8 7 27 10 42 9 15 -2 34 0 41 5 8 5
20 2 30 -8 11 -9 29 -13 50 -11 18 3 46 7 64 10 18 2 38 -1 45 -7 9 -7 17 -7
29 3 19 15 54 22 54 11 0 -5 15 -9 34 -10 27 -1 36 3 41 19 4 11 16 24 28 29
12 5 22 9 22 9 0 1 -2 -21 -3 -49z m-1022 16 c0 -3 -4 -8 -10 -11 -5 -3 -10
-1 -10 4 0 6 5 11 10 11 6 0 10 -2 10 -4z m-6380 -6109 c77 -21 172 -58 188
-73 7 -7 25 -21 40 -29 15 -9 38 -35 51 -58 14 -23 35 -50 48 -60 12 -10 23
-24 23 -32 0 -7 7 -18 15 -25 21 -17 51 -84 66 -146 13 -57 30 -87 73 -130 30
-30 187 -134 202 -134 4 0 17 -8 28 -19 12 -10 72 -53 135 -96 62 -42 120 -82
129 -88 35 -28 126 -126 155 -167 17 -25 34 -47 37 -50 13 -10 87 -173 88
-194 0 -5 4 -12 10 -15 11 -7 59 -126 66 -164 2 -15 14 -53 25 -84 11 -32 32
-101 46 -153 14 -52 28 -102 30 -110 9 -31 27 -106 30 -130 3 -14 9 -43 16
-65 8 -32 24 -107 46 -225 6 -31 17 -67 23 -75 4 -5 10 -26 13 -45 8 -47 26
-152 30 -170 22 -103 51 -222 62 -251 8 -20 12 -39 9 -41 -2 -3 1 -29 6 -59
13 -66 20 -131 25 -229 8 -136 13 -184 28 -255 18 -81 27 -130 32 -165 2 -14
7 -41 10 -60 3 -19 8 -57 11 -84 3 -27 11 -61 18 -75 13 -26 23 -104 31 -251
2 -41 6 -93 9 -115 3 -22 7 -63 9 -91 2 -28 6 -55 9 -60 11 -20 6 -151 -9
-194 -8 -25 -16 -76 -18 -115 -1 -38 -3 -78 -4 -87 -1 -9 -8 -24 -17 -32 -19
-19 -52 -111 -57 -158 -4 -42 -16 -70 -36 -85 -14 -11 -14 -12 2 -13 25 0 22
-37 -4 -45 -15 -5 -28 -1 -42 14 -19 18 -19 21 -4 21 9 0 17 6 17 14 0 9 -7
13 -20 11 -14 -3 -20 2 -20 15 0 10 -6 23 -13 27 -40 24 -95 173 -97 260 0 12
-6 28 -14 36 -15 14 -20 40 -32 158 -5 58 -9 68 -34 83 -17 9 -34 31 -41 53
-13 40 -6 141 12 176 7 12 12 37 11 57 -5 182 -13 284 -22 295 -6 8 -14 29
-16 47 -3 18 -9 47 -14 63 -9 33 -23 117 -25 152 0 12 -4 25 -7 29 -4 4 -5 26
-1 50 3 27 2 44 -4 44 -14 0 -66 85 -69 112 -1 13 -7 50 -12 83 -5 33 -8 68
-6 79 2 10 -1 26 -6 36 -5 9 -12 48 -15 86 -3 38 -9 77 -12 87 -5 19 -9 43
-17 102 -11 85 -36 180 -54 209 -3 6 -8 20 -9 31 -2 11 -8 40 -15 65 -7 25
-11 49 -10 53 1 5 -6 25 -17 45 -26 50 -35 74 -32 91 2 8 -4 30 -12 50 -14 33
-28 69 -32 81 -1 3 -14 32 -28 64 -15 33 -25 61 -23 63 2 3 -7 21 -20 40 -14
20 -24 50 -24 69 0 19 -5 34 -11 34 -6 0 -8 7 -5 16 3 8 2 12 -4 9 -9 -5 -12
1 -9 21 0 4 -3 10 -9 13 -17 12 -82 138 -74 146 4 5 1 5 -5 1 -8 -4 -13 -1
-13 8 0 9 -5 16 -11 16 -5 0 -7 5 -4 10 3 6 2 10 -2 10 -5 0 -17 15 -28 33
-10 17 -29 43 -42 57 -13 14 -23 31 -23 38 0 7 -6 19 -12 26 -32 33 -58 67
-58 75 0 5 -9 13 -20 16 -11 3 -20 10 -20 15 0 20 -181 184 -267 241 -66 45
-92 60 -95 57 -6 -6 -75 47 -127 99 -55 54 -66 81 -62 148 7 135 6 148 -14
176 -11 16 -26 29 -32 29 -7 0 -13 4 -13 9 0 11 -62 44 -115 61 -22 7 -53 18
-70 26 -16 7 -46 17 -65 23 -149 41 -187 54 -200 66 -8 7 -25 16 -36 19 -21 6
-78 53 -80 65 0 3 -4 14 -9 24 -19 45 21 269 57 314 24 30 124 56 243 62 157
8 218 5 285 -12z m-8967 -10797 c7 0 32 -18 57 -40 25 -22 51 -40 58 -40 19 0
83 -46 75 -53 -3 -4 -1 -7 5 -7 26 0 41 -99 27 -183 -12 -71 -18 -94 -40 -137
-47 -92 -134 -156 -225 -167 -59 -7 -89 0 -121 28 -20 17 -24 30 -24 72 1 50
12 124 21 139 3 4 -9 20 -26 36 -16 16 -30 35 -30 41 0 7 -4 9 -10 6 -18 -11
1 89 28 145 42 86 141 177 180 164 8 -2 19 -4 25 -4z m11809 -1143 c127 -72
189 -160 155 -220 -81 -146 -356 -164 -449 -30 -40 60 -46 107 -19 163 47 98
98 132 188 126 48 -3 76 -12 125 -39z m-15530 -2524 c61 -55 88 -226 65 -413
-1 -14 6 -47 16 -75 16 -47 20 -107 8 -130 -3 -5 -6 -12 -7 -15 0 -3 -10 -26
-22 -51 -13 -28 -23 -72 -26 -120 -5 -96 -6 -98 -41 -132 -99 -94 -201 -66
-251 70 -46 123 -56 247 -40 468 10 140 22 171 101 250 17 16 41 51 54 77 42
87 96 114 143 71z m17174 -1548 c16 -11 31 -20 34 -20 6 0 73 -46 80 -55 13
-17 102 -70 155 -95 33 -14 69 -35 80 -44 11 -10 40 -29 65 -44 25 -14 70 -48
100 -76 30 -28 59 -51 63 -51 5 0 5 -4 2 -10 -3 -5 1 -10 9 -10 8 0 23 -11 34
-25 11 -13 22 -21 26 -18 3 3 6 2 6 -4 0 -5 13 -30 29 -54 16 -24 27 -47 25
-51 -3 -4 -1 -8 4 -8 10 0 26 -87 24 -130 -4 -101 -6 -111 -21 -120 -9 -5 -13
-10 -9 -10 4 0 -4 -22 -17 -49 -14 -27 -25 -54 -25 -60 0 -6 -4 -11 -9 -11 -5
0 -12 -9 -16 -19 -3 -11 -19 -34 -35 -52 -17 -17 -28 -35 -25 -39 3 -5 2 -10
-2 -12 -5 -1 -24 -23 -42 -48 -66 -85 -133 -156 -187 -197 -26 -21 -39 -25
-84 -27 -15 0 -105 31 -165 58 -16 8 -47 19 -67 25 -20 7 -49 22 -64 34 -16
12 -51 31 -78 43 -44 17 -64 36 -139 130 -48 60 -97 127 -107 150 -30 64 -59
141 -65 171 -13 69 -17 223 -6 283 6 36 13 79 16 95 8 47 46 130 89 195 40 61
118 134 177 166 34 18 111 12 145 -11z"/>
<path d="M30480 31434 c0 -8 5 -12 10 -9 6 4 8 11 5 16 -9 14 -15 11 -15 -7z"/>
<path d="M33170 31446 c0 -9 30 -14 35 -6 4 6 -3 10 -14 10 -12 0 -21 -2 -21
-4z"/>
<path d="M31070 31419 c0 -5 5 -7 10 -4 6 3 10 8 10 11 0 2 -4 4 -10 4 -5 0
-10 -5 -10 -11z"/>
<path d="M31528 31403 c7 -3 16 -2 19 1 4 3 -2 6 -13 5 -11 0 -14 -3 -6 -6z"/>
<path d="M30060 31282 c0 -12 3 -12 15 -2 8 7 15 13 15 15 0 1 -7 2 -15 2 -8
0 -15 -7 -15 -15z"/>
<path d="M29904 31269 c-3 -6 -1 -16 5 -22 8 -8 11 -5 11 11 0 24 -5 28 -16
11z"/>
<path d="M30764 31244 c-18 -15 -18 -15 2 -5 12 6 25 7 29 3 5 -4 5 -1 1 6 -9
15 -8 15 -32 -4z"/>
<path d="M14620 52240 c-8 -5 -10 -10 -5 -10 6 0 3 -5 -5 -10 -8 -5 -10 -10
-5 -10 14 0 30 13 33 28 2 14 1 15 -18 2z"/>
<path d="M14695 52240 c-3 -5 -1 -10 4 -10 6 0 11 5 11 10 0 6 -2 10 -4 10 -3
0 -8 -4 -11 -10z"/>
<path d="M15386 52241 c-3 -5 5 -11 19 -13 20 -4 23 -3 14 8 -13 16 -25 18
-33 5z"/>
<path d="M14705 52209 c-4 -6 -5 -12 -2 -15 2 -3 7 2 10 11 7 17 1 20 -8 4z"/>
<path d="M14595 52189 c-10 -15 3 -25 16 -12 7 7 7 13 1 17 -6 3 -14 1 -17 -5z"/>
<path d="M15676 52185 c4 -8 10 -15 15 -15 4 0 6 7 3 15 -4 8 -10 15 -15 15
-4 0 -6 -7 -3 -15z"/>
<path d="M14656 52163 c5 -5 12 -12 16 -18 4 -6 8 -2 8 8 0 9 -7 17 -17 17 -9
0 -12 -3 -7 -7z"/>
<path d="M15795 52160 c3 -5 8 -10 11 -10 2 0 4 5 4 10 0 6 -5 10 -11 10 -5 0
-7 -4 -4 -10z"/>
<path d="M15760 52130 c-6 -11 -7 -20 -2 -20 6 0 12 9 15 20 3 11 3 20 1 20
-2 0 -8 -9 -14 -20z"/>
<path d="M15826 52127 c3 -10 9 -15 12 -12 3 3 0 11 -7 18 -10 9 -11 8 -5 -6z"/>
<path d="M15875 52130 c-3 -5 -1 -10 4 -10 6 0 11 5 11 10 0 6 -2 10 -4 10 -3
0 -8 -4 -11 -10z"/>
<path d="M15915 52110 c3 -5 8 -10 11 -10 2 0 4 5 4 10 0 6 -5 10 -11 10 -5 0
-7 -4 -4 -10z"/>
<path d="M14601 52024 c0 -11 3 -14 6 -6 3 7 2 16 -1 19 -3 4 -6 -2 -5 -13z"/>
<path d="M16000 52020 c0 -5 5 -10 11 -10 5 0 7 5 4 10 -3 6 -8 10 -11 10 -2
0 -4 -4 -4 -10z"/>
<path d="M14430 52009 c0 -5 5 -7 10 -4 6 3 10 8 10 11 0 2 -4 4 -10 4 -5 0
-10 -5 -10 -11z"/>
<path d="M16060 52005 c0 -8 2 -15 4 -15 2 0 6 7 10 15 3 8 1 15 -4 15 -6 0
-10 -7 -10 -15z"/>
<path d="M14500 51990 c-9 -6 -10 -10 -3 -10 6 0 15 5 18 10 8 12 4 12 -15 0z"/>
<path d="M14369 51983 c-1 -5 0 -26 1 -48 1 -37 0 -38 -13 -21 -13 18 -14 17
-9 -12 3 -27 6 -29 18 -17 8 7 14 27 14 44 0 33 26 44 36 16 4 -9 18 -15 33
-14 25 1 25 1 3 7 -13 4 -23 10 -23 15 3 26 0 31 -9 17 -8 -12 -10 -12 -11 5
0 11 -3 14 -6 8 -2 -7 -11 -13 -19 -13 -9 0 -12 5 -9 10 3 6 4 10 1 10 -3 0
-6 -3 -7 -7z"/>
<path d="M16146 51976 c3 -9 11 -16 16 -16 13 0 5 23 -10 28 -7 2 -10 -2 -6
-12z"/>
<path d="M14495 51960 c-3 -5 -2 -10 4 -10 5 0 13 5 16 10 3 6 2 10 -4 10 -5
0 -13 -4 -16 -10z"/>
<path d="M14502 51924 c-7 -8 -8 -14 -3 -14 10 0 25 19 20 25 -2 1 -10 -3 -17
-11z"/>
<path d="M16265 51930 c3 -5 8 -10 11 -10 2 0 4 5 4 10 0 6 -5 10 -11 10 -5 0
-7 -4 -4 -10z"/>
<path d="M14405 51910 c-19 -8 -19 -9 3 -9 12 -1 22 4 22 9 0 6 -1 10 -2 9 -2
0 -12 -4 -23 -9z"/>
<path d="M14315 51889 c-4 -6 -4 -13 -1 -16 3 -4 6 0 6 8 0 11 2 11 10 -1 8
-13 10 -12 10 3 0 19 -15 23 -25 6z"/>
<path d="M14270 51856 c0 -7 11 -21 25 -30 29 -19 35 -49 8 -39 -10 3 -15 3
-11 -2 4 -4 0 -14 -9 -20 -15 -11 -14 -12 10 -12 16 0 24 4 20 10 -3 6 -1 7 5
3 6 -3 16 3 22 15 8 15 9 19 1 15 -6 -4 -11 -2 -11 3 0 6 6 11 14 11 8 0 18 4
21 10 4 6 -1 7 -11 3 -12 -5 -15 -3 -9 6 6 10 3 11 -14 2 -19 -10 -21 -9 -21
11 0 19 -2 20 -10 8 -9 -13 -14 -7 -11 13 0 4 -3 7 -9 7 -5 0 -10 -6 -10 -14z"/>
<path d="M14399 51857 c7 -7 14 -8 21 -1 6 6 2 10 -12 11 -16 2 -18 -1 -9 -10z"/>
<path d="M14380 51840 c0 -6 7 -10 15 -10 8 0 15 2 15 4 0 2 -7 6 -15 10 -8 3
-15 1 -15 -4z"/>
<path d="M14260 51821 c0 -6 -10 -12 -22 -12 -17 -1 -18 -3 -6 -6 23 -6 55 12
39 21 -6 4 -11 2 -11 -3z"/>
<path d="M14430 51820 c0 -5 5 -10 11 -10 5 0 7 5 4 10 -3 6 -8 10 -11 10 -2
0 -4 -4 -4 -10z"/>
<path d="M14375 51811 c-2 -4 1 -8 8 -8 7 0 21 -4 31 -9 13 -5 17 -4 13 3 -9
14 -46 23 -52 14z"/>
<path d="M27215 51790 c-3 -6 1 -7 9 -4 18 7 21 14 7 14 -6 0 -13 -4 -16 -10z"/>
<path d="M27265 51780 c-3 -5 -1 -10 4 -10 6 0 11 5 11 10 0 6 -2 10 -4 10 -3
0 -8 -4 -11 -10z"/>
<path d="M14375 51770 c-3 -5 -1 -10 4 -10 6 0 11 5 11 10 0 6 -2 10 -4 10 -3
0 -8 -4 -11 -10z"/>
<path d="M16641 51771 c-10 -7 -10 -10 -1 -16 6 -4 16 -3 22 3 13 13 -4 23
-21 13z"/>
<path d="M14327 51736 c-3 -8 2 -16 14 -19 10 -3 19 -1 19 4 0 5 -5 9 -11 9
-5 0 -7 5 -4 10 3 6 2 10 -3 10 -6 0 -12 -6 -15 -14z"/>
<path d="M14201 51719 c15 -15 24 -18 32 -10 8 8 8 14 -2 24 -10 10 -11 8 -5
-8 7 -19 7 -19 -13 -2 -28 24 -37 21 -12 -4z"/>
<path d="M14258 51713 c7 -3 16 -2 19 1 4 3 -2 6 -13 5 -11 0 -14 -3 -6 -6z"/>
<path d="M14303 51692 c-1 -22 0 -24 9 -8 6 10 6 22 2 26 -5 5 -10 -3 -11 -18z"/>
<path d="M14160 51700 c-18 -12 -2 -12 25 0 13 6 15 9 5 9 -8 0 -22 -4 -30 -9z"/>
<path d="M27584 51670 c0 -13 4 -16 10 -10 7 7 7 13 0 20 -6 6 -10 3 -10 -10z"/>
<path d="M14230 51665 c9 -11 9 -15 1 -15 -7 0 -9 -4 -6 -10 3 -5 -3 -10 -14
-10 -12 0 -21 -7 -21 -15 0 -8 6 -12 14 -9 8 3 16 0 19 -8 2 -7 3 -5 2 5 -2 9
2 17 8 17 18 -1 48 -26 40 -33 -3 -4 -1 -7 5 -7 7 0 12 5 12 12 0 6 7 20 17
30 15 17 15 18 -9 16 -18 -2 -24 -7 -20 -16 4 -12 1 -12 -17 -3 -12 7 -19 16
-16 21 7 11 -5 40 -17 40 -6 0 -5 -6 2 -15z"/>
<path d="M14135 51650 c-3 -5 1 -10 10 -10 9 0 14 -4 11 -9 -7 -10 9 -8 37 4
21 9 22 22 2 22 -8 0 -12 -4 -9 -9 7 -11 -3 -10 -26 2 -13 7 -21 7 -25 0z"/>
<path d="M14086 51620 c5 -8 9 -19 9 -25 0 -5 7 -11 16 -13 9 -1 16 4 16 13 0
8 -3 13 -5 10 -3 -3 -14 3 -25 12 -14 13 -18 13 -11 3z"/>
<path d="M27737 51603 c-3 -5 6 -9 20 -10 19 -1 22 1 12 8 -17 11 -26 11 -32
2z"/>
<path d="M27810 51586 c0 -9 -4 -14 -10 -11 -5 3 -10 1 -10 -4 0 -6 5 -11 10
-11 13 0 25 28 16 37 -3 4 -6 -1 -6 -11z"/>
<path d="M27833 51561 c1 -15 6 -19 19 -15 10 3 18 0 18 -6 0 -6 4 -8 10 -5 6
4 5 11 -3 20 -6 7 -14 11 -16 9 -2 -2 -10 1 -17 7 -10 8 -13 6 -11 -10z"/>
<path d="M14066 51528 c3 -5 10 -6 15 -3 13 9 11 12 -6 12 -8 0 -12 -4 -9 -9z"/>
<path d="M14000 51504 c0 -5 16 -22 36 -38 26 -21 33 -31 24 -40 -15 -15 -44
-14 -51 3 -4 11 -7 10 -11 -6 -6 -24 10 -56 19 -35 2 6 16 12 29 12 14 0 23 3
20 8 -2 4 2 16 10 27 14 19 19 12 15 -25 -2 -13 0 -13 8 -1 12 18 -8 66 -22
52 -5 -5 -16 -3 -28 7 -17 15 -17 16 -1 28 10 8 12 14 5 14 -6 0 -15 -5 -18
-10 -5 -8 -11 -7 -21 1 -8 6 -14 8 -14 3z"/>
<path d="M14117 51495 c-10 -9 -15 -20 -12 -23 3 -4 10 -1 14 7 7 10 9 10 14
-2 3 -8 0 -20 -6 -27 -10 -10 -6 -11 16 -6 18 4 27 2 27 -6 0 -9 3 -9 12 0 9
9 8 16 -5 30 -9 10 -14 22 -10 27 5 4 0 5 -9 2 -9 -3 -18 -1 -20 5 -2 6 -11 4
-21 -7z"/>
<path d="M27976 51495 c4 -8 10 -12 15 -9 5 3 9 0 9 -7 0 -7 3 -9 6 -6 8 7
-14 37 -27 37 -5 0 -6 -7 -3 -15z"/>
<path d="M28026 51475 c-3 -9 0 -12 8 -9 7 3 16 -2 19 -10 4 -9 13 -16 22 -16
8 0 15 -4 15 -10 0 -5 4 -10 10 -10 19 0 -2 29 -35 49 -27 16 -35 17 -39 6z"/>
<path d="M17438 51473 c7 -3 16 -2 19 1 4 3 -2 6 -13 5 -11 0 -14 -3 -6 -6z"/>
<path d="M28205 51373 c17 -10 36 -16 43 -14 8 1 22 -7 31 -18 10 -12 27 -21
37 -20 16 0 16 2 -4 11 -13 7 -21 17 -18 25 3 8 1 11 -5 8 -5 -4 -21 0 -34 9
-13 9 -37 16 -52 16 l-28 -1 30 -16z"/>
<path d="M13972 51365 c0 -11 3 -29 7 -39 7 -18 8 -18 14 -3 3 9 2 17 -3 17
-5 0 -11 10 -13 23 -4 18 -4 19 -5 2z"/>
<path d="M13925 51360 c3 -5 8 -10 11 -10 2 0 4 5 4 10 0 6 -5 10 -11 10 -5 0
-7 -4 -4 -10z"/>
<path d="M14017 51353 c-11 -10 -8 -25 4 -18 6 4 13 -2 16 -14 3 -11 9 -18 14
-15 5 3 9 -2 9 -10 0 -9 5 -16 11 -16 5 0 7 -5 3 -11 -4 -7 -17 1 -35 20 -27
30 -47 42 -34 20 4 -5 -3 -19 -16 -30 -17 -15 -18 -19 -6 -19 9 0 19 5 22 10
3 6 12 10 18 9 9 0 9 -2 0 -6 -7 -2 -13 -9 -13 -14 0 -4 7 -6 16 -2 9 3 20 0
24 -7 7 -11 11 -10 24 3 13 13 14 20 4 41 -6 14 -15 26 -20 26 -5 0 -6 5 -3
10 4 6 12 7 18 3 7 -4 6 0 -2 10 -14 17 -42 23 -54 10z"/>
<path d="M13920 51305 c-11 -13 -11 -18 0 -28 10 -10 11 -9 5 2 -5 9 -1 19 10
28 11 7 14 13 8 13 -6 0 -16 -7 -23 -15z"/>
<path d="M28335 51310 c-5 -9 33 -30 53 -30 4 0 13 -9 20 -20 7 -11 17 -20 24
-20 6 0 19 -7 29 -16 18 -16 39 -12 39 7 0 6 -4 8 -9 4 -5 -3 -12 -1 -16 5 -3
5 -15 10 -27 10 -14 0 -18 5 -14 16 3 8 2 12 -4 9 -17 -10 -34 6 -19 17 11 8
11 9 -1 5 -8 -2 -27 2 -42 9 -17 9 -29 10 -33 4z"/>
<path d="M13943 51266 c4 -10 0 -14 -14 -13 -10 1 -19 6 -20 12 -1 5 -4 -1 -8
-15 -4 -14 -13 -24 -20 -22 -7 1 -10 -2 -7 -7 4 -5 0 -12 -6 -14 -10 -4 -10
-6 -1 -6 7 -1 21 9 33 21 11 12 20 19 20 15 0 -4 9 -3 20 3 17 9 19 7 17 -16
-1 -15 3 -29 10 -31 8 -3 9 6 2 34 -5 21 -9 41 -9 46 0 4 -5 7 -11 7 -6 0 -9
-6 -6 -14z"/>
<path d="M28512 51208 c5 -14 81 -69 86 -63 2 2 13 -6 24 -17 11 -11 23 -16
26 -12 4 3 1 9 -6 11 -6 3 -9 10 -6 15 4 6 2 8 -4 4 -5 -3 -12 -2 -14 4 -2 6
-14 12 -28 15 -14 3 -30 12 -36 20 -6 8 -17 15 -23 15 -7 0 -9 5 -6 10 3 6 1
10 -5 10 -7 0 -10 -6 -8 -12z"/>
<path d="M13840 51140 c0 -5 5 -10 11 -10 5 0 7 5 4 10 -3 6 -8 10 -11 10 -2
0 -4 -4 -4 -10z"/>
<path d="M13867 51125 c-4 -8 -3 -16 1 -19 4 -3 9 4 9 15 2 23 -3 25 -10 4z"/>
<path d="M13827 51097 c-3 -9 -2 -19 4 -23 15 -9 18 -2 9 20 -6 17 -7 18 -13
3z"/>
<path d="M28716 51062 c-3 -5 1 -9 9 -9 8 0 15 4 15 9 0 4 -4 8 -9 8 -6 0 -12
-4 -15 -8z"/>
<path d="M13776 51035 c-15 -22 -11 -30 11 -22 7 2 15 47 8 47 -1 0 -10 -11
-19 -25z"/>
<path d="M13743 51035 c-7 -8 -9 -16 -5 -19 4 -3 13 4 20 15 14 22 3 25 -15 4z"/>
<path d="M13766 50948 c7 -11 32 -10 39 2 3 6 -4 9 -19 8 -13 -1 -22 -6 -20
-10z"/>
<path d="M13720 50943 c0 -5 4 -14 9 -21 6 -10 10 -9 14 7 3 14 0 21 -9 21 -8
0 -14 -3 -14 -7z"/>
<path d="M13750 50910 c0 -6 7 -10 15 -10 8 0 15 2 15 4 0 2 -7 6 -15 10 -8 3
-15 1 -15 -4z"/>
<path d="M13650 50870 c-9 -6 -10 -10 -3 -10 6 0 15 5 18 10 8 12 4 12 -15 0z"/>
<path d="M13611 50841 c-9 -6 -10 -11 -2 -15 6 -4 11 -3 11 3 0 5 8 12 18 14
12 3 13 5 2 6 -8 0 -21 -3 -29 -8z"/>
<path d="M13620 50800 c0 -5 7 -10 16 -10 8 0 12 5 9 10 -3 6 -10 10 -16 10
-5 0 -9 -4 -9 -10z"/>
<path d="M13571 50774 c0 -11 3 -14 6 -6 3 7 2 16 -1 19 -3 4 -6 -2 -5 -13z"/>
<path d="M13574 50655 c3 -10 0 -28 -9 -41 -8 -13 -11 -25 -5 -29 5 -3 14 4
20 15 6 11 15 18 21 15 5 -4 9 2 9 12 0 10 -10 24 -21 32 -20 12 -21 11 -15
-4z"/>
<path d="M13480 50645 c0 -8 8 -15 18 -14 10 0 12 3 4 6 -6 2 -10 9 -6 14 3 5
0 9 -5 9 -6 0 -11 -7 -11 -15z"/>
<path d="M13482 50578 c-14 -14 -16 -28 -3 -28 9 0 24 30 18 36 -2 2 -9 -2
-15 -8z"/>
<path d="M13510 50587 c0 -3 16 -15 37 -27 l36 -21 -15 23 c-13 20 -58 39 -58
25z"/>
<path d="M13424 50524 c-31 -19 -35 -24 -18 -24 12 0 25 8 28 17 6 15 8 15 16
3 6 -9 10 -10 10 -3 0 6 10 13 23 15 22 3 22 4 1 9 -13 4 -36 -3 -60 -17z"/>
<path d="M13486 50510 c-19 -6 -19 -7 -1 -13 20 -8 29 -4 24 11 -2 5 -13 6
-23 2z"/>
<path d="M13443 50485 c-9 -10 -8 -14 10 -19 27 -7 30 -4 14 17 -10 13 -14 14
-24 2z"/>
<path d="M13395 50459 c7 -21 6 -22 -9 -10 -14 12 -16 12 -10 -2 6 -16 33 -31
42 -22 3 3 1 5 -5 5 -6 0 -9 8 -6 19 3 10 -1 22 -7 26 -9 5 -10 1 -5 -16z"/>
<path d="M13470 50440 c0 -5 7 -10 16 -10 8 0 12 5 9 10 -3 6 -10 10 -16 10
-5 0 -9 -4 -9 -10z"/>
<path d="M13370 50370 c0 -6 7 -10 15 -10 8 0 15 2 15 4 0 2 -7 6 -15 10 -8 3
-15 1 -15 -4z"/>
<path d="M13313 50358 c-17 -28 -6 -84 14 -65 4 5 1 12 -7 18 -10 6 -12 11 -4
17 6 4 11 15 11 25 0 20 -3 21 -14 5z"/>
<path d="M13147 50219 c7 -7 15 -10 18 -7 3 3 -2 9 -12 12 -14 6 -15 5 -6 -5z"/>
<path d="M13185 50169 c-5 -14 -3 -25 4 -27 6 -2 8 -9 4 -15 -4 -7 1 -6 10 2
30 24 30 4 0 -23 -15 -14 -22 -26 -15 -26 7 0 20 9 29 19 9 11 20 18 25 15 4
-3 8 2 8 10 0 10 9 16 23 16 21 1 21 2 -8 25 -19 16 -33 21 -40 15 -7 -6 -16
-5 -22 1 -8 8 -13 4 -18 -12z m45 -13 c0 -2 -7 -6 -15 -10 -8 -3 -15 -1 -15 4
0 6 7 10 15 10 8 0 15 -2 15 -4z"/>
<path d="M13140 50169 c0 -5 5 -7 10 -4 6 3 10 8 10 11 0 2 -4 4 -10 4 -5 0
-10 -5 -10 -11z"/>
<path d="M13155 50130 c10 -11 21 -17 24 -14 3 4 0 9 -7 11 -6 3 -10 9 -6 14
3 5 -3 9 -12 9 -16 0 -16 -2 1 -20z"/>
<path d="M13064 50107 c-8 -9 -7 -16 1 -24 10 -9 13 -6 13 13 0 13 -1 24 -2
24 0 -1 -6 -6 -12 -13z"/>
<path d="M13103 50103 c-18 -7 -16 -33 3 -33 8 0 12 -4 9 -10 -3 -5 -1 -10 4
-10 17 0 13 20 -4 26 -12 5 -13 10 -4 20 12 15 11 15 -8 7z"/>
<path d="M13056 50025 c-21 -27 -23 -35 -12 -35 9 0 16 -8 16 -17 0 -15 2 -16
10 -3 7 11 5 19 -7 28 -16 11 -11 17 12 12 6 -1 7 2 3 5 -4 4 -3 16 3 26 15
30 4 22 -25 -16z"/>
<path d="M13021 50024 c0 -11 3 -14 6 -6 3 7 2 16 -1 19 -3 4 -6 -2 -5 -13z"/>
<path d="M13093 49997 c2 -39 -1 -47 -15 -47 -10 0 -18 -4 -18 -10 0 -16 19
-11 41 11 16 16 18 23 9 34 -7 8 -9 18 -7 23 3 4 2 14 -3 22 -6 9 -8 -2 -7
-33z"/>
<path d="M13026 49971 c-3 -5 2 -15 12 -22 15 -12 16 -12 5 2 -7 9 -10 19 -6
22 3 4 4 7 0 7 -3 0 -8 -4 -11 -9z"/>
<path d="M13027 49929 c7 -7 15 -10 18 -7 3 3 -2 9 -12 12 -14 6 -15 5 -6 -5z"/>
<path d="M12990 49907 c0 -9 4 -18 9 -21 5 -4 8 1 7 9 -3 21 -16 31 -16 12z"/>
<path d="M12980 49820 c0 -13 11 -13 30 0 12 8 11 10 -7 10 -13 0 -23 -4 -23
-10z"/>
<path d="M12940 49788 c0 -17 2 -18 15 -4 8 8 15 16 15 19 0 2 -7 4 -15 4 -8
0 -15 -9 -15 -19z"/>
<path d="M13010 49755 c0 -17 4 -23 14 -19 8 3 12 13 9 25 -7 27 -23 24 -23
-6z"/>
<path d="M12940 49725 c-11 -13 -10 -14 4 -9 9 3 16 10 16 15 0 13 -6 11 -20
-6z"/>
<path d="M12985 49730 c-3 -5 -1 -10 4 -10 6 0 11 5 11 10 0 6 -2 10 -4 10 -3
0 -8 -4 -11 -10z"/>
<path d="M15330 39628 c0 -4 4 -8 9 -8 6 0 12 4 15 8 3 5 -1 9 -9 9 -8 0 -15
-4 -15 -9z"/>
<path d="M15370 39630 c0 -5 5 -10 11 -10 5 0 7 5 4 10 -3 6 -8 10 -11 10 -2
0 -4 -4 -4 -10z"/>
<path d="M15400 39636 c0 -2 9 -6 20 -9 11 -3 18 -1 14 4 -5 9 -34 13 -34 5z"/>
<path d="M39710 37016 c0 -15 -3 -17 -11 -9 -7 7 -21 8 -40 3 -20 -6 -29 -5
-29 3 0 8 -3 8 -9 -1 -9 -14 -32 -13 -43 3 -5 6 -8 5 -8 -3 0 -10 -5 -10 -20
-2 -15 8 -18 8 -14 -3 4 -11 -2 -14 -22 -11 -14 1 -38 -2 -53 -8 -14 -5 -36
-12 -47 -14 -12 -2 -39 -12 -60 -21 -22 -10 -43 -18 -49 -19 -5 -1 -12 -3 -15
-4 -3 -1 -12 -3 -20 -5 -28 -5 -132 -57 -218 -107 -133 -78 -322 -208 -603
-415 -141 -103 -291 -213 -333 -243 -45 -33 -74 -60 -71 -68 3 -7 0 -10 -5 -7
-6 3 -10 1 -10 -5 0 -6 -4 -8 -10 -5 -5 3 -10 1 -10 -4 0 -6 -3 -10 -7 -10
-20 3 -24 -2 -14 -15 16 -19 -5 -32 -25 -15 -12 10 -13 9 -8 -5 5 -12 0 -19
-15 -23 -11 -3 -21 -9 -21 -13 0 -4 -11 -11 -25 -14 -14 -4 -23 -11 -20 -15 6
-10 -17 -37 -36 -43 -8 -3 -4 -17 10 -43 30 -57 45 -79 56 -87 7 -5 7 -8 0 -8
-7 0 -7 -3 0 -8 6 -4 28 -29 50 -57 21 -27 42 -52 45 -55 3 -3 23 -27 45 -54
22 -27 63 -77 90 -110 150 -184 668 -835 775 -976 122 -159 260 -314 260 -291
0 6 7 11 15 11 8 0 15 5 15 10 0 6 5 10 11 10 5 0 7 -4 4 -10 -3 -5 0 -7 9 -4
9 3 12 12 9 21 -4 11 -2 14 5 9 7 -4 12 -2 12 3 0 6 8 11 18 12 16 0 15 1 -1
8 -17 6 -16 8 7 21 15 8 22 16 16 20 -6 4 -1 17 15 34 14 15 25 32 25 39 0 7
4 6 10 -3 8 -12 10 -11 10 6 0 12 8 28 18 35 15 13 16 12 3 -3 -8 -11 -9 -18
-3 -18 17 0 25 20 13 34 -9 11 -7 15 10 19 11 3 18 10 15 16 -4 5 -1 13 5 16
5 4 8 14 5 22 -3 8 -1 11 4 8 6 -3 10 1 10 9 0 9 6 16 13 16 9 0 8 3 -2 9 -7
5 -10 14 -7 20 4 6 12 9 17 6 5 -4 9 1 9 9 0 10 9 16 21 16 12 0 23 8 26 20 3
11 10 17 16 13 6 -3 7 -1 3 5 -4 7 -14 12 -22 12 -9 0 -12 -5 -8 -12 5 -7 3
-8 -6 -3 -10 6 -12 4 -7 -8 7 -18 -8 -24 -18 -7 -13 21 29 47 80 49 17 1 17 3
5 11 -13 8 -12 10 3 10 9 0 17 7 17 15 0 8 8 15 18 15 11 0 13 3 5 8 -8 5 -7
12 4 27 10 13 13 15 11 5 -2 -9 2 -16 7 -16 6 0 9 6 7 13 -2 8 10 16 28 20 22
4 28 8 18 14 -10 7 -8 9 7 10 11 0 14 3 7 6 -17 7 -5 23 19 23 10 0 19 -7 19
-15 0 -8 5 -15 10 -15 6 0 10 4 10 9 0 6 -4 13 -10 16 -16 10 -12 38 5 31 18
-6 19 -1 5 25 -7 11 -7 19 -1 19 5 0 12 -13 16 -30 4 -16 11 -33 17 -36 6 -4
8 1 4 14 -6 17 -1 21 23 27 17 4 35 4 41 0 5 -3 7 0 4 9 -3 8 -12 12 -20 9 -9
-3 -14 2 -14 15 0 12 9 23 21 27 14 5 19 13 16 25 -3 13 0 16 14 13 15 -4 17
-9 8 -19 -8 -10 -6 -11 15 -1 16 8 21 14 13 19 -7 5 -1 8 15 8 15 0 31 -8 37
-17 6 -10 11 -13 11 -6 0 7 10 10 26 7 16 -3 23 -1 19 6 -3 5 -13 10 -21 10
-8 0 -14 8 -14 18 0 14 2 15 10 2 8 -13 11 -13 22 -1 10 11 10 14 1 18 -7 3
-13 9 -13 15 0 6 6 6 15 -2 11 -9 19 -10 28 -1 8 6 23 9 34 6 12 -2 24 3 27
11 6 14 36 9 48 -10 3 -5 10 7 13 27 4 20 11 34 16 31 5 -3 12 1 15 10 3 8 12
17 20 20 8 3 13 2 10 -2 -3 -4 4 -13 14 -20 14 -9 19 -8 24 4 3 8 11 14 18 12
19 -3 60 21 53 33 -8 11 -7 11 33 0 20 -6 30 -6 27 0 -4 5 -13 9 -21 9 -11 0
-10 4 4 18 13 14 19 15 25 5 10 -16 37 -17 37 -2 0 7 11 9 30 6 17 -4 32 -2
36 5 4 6 3 8 -4 4 -6 -3 -13 -2 -17 4 -4 6 -11 8 -16 5 -5 -4 -9 2 -9 13 0 17
7 19 75 18 41 0 75 2 75 7 0 4 7 7 15 7 11 0 14 7 9 25 -6 25 1 30 34 26 17
-2 15 16 -2 22 -8 3 -24 -3 -37 -13 -18 -16 -20 -22 -9 -35 10 -12 10 -15 -2
-15 -9 0 -15 13 -16 35 -2 26 1 33 11 29 8 -3 22 2 30 11 14 14 18 13 36 -6
l19 -21 7 21 c5 16 12 20 29 15 19 -4 24 -1 28 20 3 14 1 26 -3 26 -5 0 -9 -9
-9 -21 0 -11 -4 -18 -10 -14 -14 8 10 54 25 49 7 -3 15 -14 18 -25 3 -10 10
-19 16 -19 9 0 9 5 1 21 -7 11 -9 33 -6 47 l6 27 -15 -25 c-11 -19 -14 -21
-15 -8 0 14 -6 16 -32 11 -22 -4 -29 -3 -24 6 4 6 12 9 17 5 5 -3 16 10 24 28
12 28 20 31 16 6 -2 -15 20 -8 25 7 9 21 27 19 20 -2 -5 -16 -5 -16 8 0 14 18
14 18 19 0 4 -14 5 -14 6 5 0 12 -5 22 -11 22 -7 0 -5 5 5 11 10 6 21 8 24 5
11 -11 43 27 43 51 0 14 4 21 10 18 6 -3 10 3 10 14 0 12 -7 21 -15 21 -8 0
-15 -5 -15 -11 0 -16 -24 -36 -38 -31 -15 5 -16 -10 0 -26 12 -12 8 -15 -45
-26 -15 -4 -25 -11 -22 -16 3 -6 -2 -10 -12 -10 -16 1 -16 3 4 19 24 20 21 31
-11 32 -12 0 -15 3 -8 6 6 2 9 10 5 16 -4 6 0 8 10 4 23 -9 47 2 47 22 0 14 2
14 10 1 9 -13 11 -13 20 0 5 8 10 11 10 6 0 -6 6 -4 12 2 10 10 10 15 -2 22
-12 8 -11 10 5 10 11 0 26 9 33 20 7 11 18 20 26 20 7 0 16 -9 19 -20 3 -11 1
-20 -4 -20 -5 0 -9 4 -9 8 0 5 -7 9 -15 9 -8 0 -15 -6 -15 -14 0 -7 5 -13 10
-13 6 0 11 -12 11 -27 l1 -28 8 30 c4 17 8 26 9 21 0 -6 10 0 21 12 24 26 35
28 26 7 -3 -8 -1 -15 4 -15 6 0 10 9 10 20 0 12 7 20 18 20 14 0 15 -2 2 -10
-12 -7 -10 -9 7 -7 12 0 19 5 16 10 -3 4 3 17 13 28 9 10 12 19 6 19 -6 0 -15
-7 -20 -17 -8 -14 -12 -14 -24 -2 -13 12 -12 15 10 26 13 7 32 13 42 13 25 0
33 26 9 27 -10 1 -19 -3 -19 -8 0 -6 -5 -7 -11 -3 -8 5 -7 10 4 16 13 7 14 14
7 36 -8 22 -8 24 2 11 18 -22 58 -42 58 -29 0 5 -4 10 -9 10 -5 0 -17 7 -26
17 -16 15 -15 17 7 30 l23 14 -22 -4 c-15 -4 -23 0 -23 9 0 8 6 14 13 14 8 0
7 3 -3 10 -12 7 -10 11 9 18 15 5 20 11 13 16 -6 4 -20 -2 -32 -14 -15 -15
-20 -16 -20 -5 0 7 8 19 18 24 15 9 15 10 -5 11 -12 0 -23 -6 -26 -12 -2 -7
-2 1 0 17 3 21 1 26 -5 16 -7 -9 -12 -10 -16 -2 -11 16 2 31 21 24 11 -4 14
-3 9 5 -5 8 -21 10 -46 6 -36 -6 -40 -4 -50 21 -6 15 -8 30 -5 33 3 3 5 0 5
-6 0 -7 10 -12 23 -11 14 0 17 3 7 6 -32 13 -41 31 -24 48 9 9 19 13 22 10 4
-3 0 -10 -8 -15 -8 -5 -11 -12 -7 -17 10 -9 27 15 27 38 0 12 -7 15 -25 11
-28 -5 -29 -3 -15 32 8 21 6 26 -6 26 -8 0 -12 -4 -9 -10 3 -5 -1 -10 -10 -10
-9 0 -13 5 -9 11 3 6 1 15 -7 19 -9 6 -5 11 14 15 26 7 37 24 17 26 -5 1 -19
3 -30 4 -11 1 -23 3 -26 4 -3 0 2 8 10 17 9 8 16 21 16 27 0 7 -11 0 -24 -15
-22 -25 -24 -25 -29 -7 -3 10 -1 19 4 19 17 0 9 18 -10 23 -25 6 -34 -2 -20
-20 9 -10 7 -13 -7 -13 -11 0 -26 5 -34 10 -13 8 -12 10 3 10 9 0 17 5 17 11
0 14 -41 48 -57 49 -7 0 -13 7 -13 15 0 8 -4 15 -10 15 -5 0 -10 -6 -10 -14 0
-8 -4 -17 -8 -20 -10 -6 -10 40 0 49 9 10 -2 36 -13 29 -5 -3 -9 0 -9 5 0 6 6
11 14 11 8 0 18 5 22 12 5 8 -2 9 -24 5 -34 -7 -45 8 -13 18 11 3 22 12 25 20
3 9 0 12 -10 8 -7 -3 -14 -10 -15 -17 0 -6 -4 -1 -9 12 -13 32 -28 27 -33 -10
l-4 -33 -1 37 c-1 21 3 38 11 41 7 3 6 6 -5 6 -9 1 -20 -8 -23 -19 -4 -11 -11
-18 -16 -14 -6 4 -5 11 2 20 10 12 8 16 -9 21 -14 3 -22 13 -22 27 0 16 2 18
9 7 14 -22 41 -5 41 25 0 22 -2 25 -15 14 -13 -10 -15 -9 -15 9 0 12 5 19 10
16 6 -3 10 1 10 10 0 11 -6 14 -25 9 -16 -4 -25 -2 -25 6 0 7 -6 10 -14 7 -10
-4 -16 2 -18 16 -2 12 -11 23 -22 25 -13 3 -16 0 -11 -9 5 -7 4 -10 -3 -5 -6
3 -13 -3 -15 -16 -3 -14 -5 -9 -4 12 1 60 -3 90 -12 90 -4 0 -6 -11 -3 -25 2
-15 0 -25 -7 -25 -7 0 -9 -5 -5 -11 4 -8 9 -7 15 2 6 10 9 10 9 2 0 -16 -17
-26 -25 -13 -4 6 -10 8 -14 6 -4 -3 -13 -1 -21 5 -13 7 -12 9 2 9 26 0 30 16
14 52 -8 18 -15 27 -15 21 -1 -7 -13 -13 -27 -13 -18 0 -24 4 -21 13 3 8 -6
27 -20 43 -15 16 -23 22 -20 13 3 -9 0 -22 -6 -28 -6 -6 -7 -14 -3 -18 4 -4
11 -1 16 7 5 8 12 11 17 7 9 -9 -17 -28 -32 -23 -5 2 -9 13 -8 24 2 16 -2 20
-17 17 -11 -2 -19 1 -17 8 2 13 -6 13 -37 1 -16 -6 -18 -4 -13 10 6 15 3 17
-26 11 -24 -5 -28 -4 -17 4 9 6 10 11 3 11 -6 0 -19 3 -29 7 -13 5 -15 3 -9
-7 5 -9 4 -11 -3 -6 -7 4 -12 17 -12 29 0 12 -4 17 -8 12 -4 -6 -21 -11 -39
-11 -27 0 -30 2 -20 15 9 12 9 13 0 7 -8 -4 -13 -2 -13 5 0 9 -4 9 -15 -1 -8
-6 -19 -9 -25 -5 -6 4 -17 2 -25 -5 -8 -6 -16 -7 -19 -2 -3 6 4 13 17 17 19 6
20 8 4 12 -10 3 -24 0 -31 -6 -10 -8 -17 -7 -26 4 -8 9 -21 13 -32 9 -10 -3
-26 0 -34 7 -13 10 -17 10 -24 0 -6 -11 -9 -11 -13 0 -4 12 -7 11 -16 -1 -7
-10 -11 -11 -11 -3 0 7 -7 10 -17 6 -10 -4 -14 -2 -10 4 4 6 -7 9 -31 7 -20
-1 -40 3 -44 9 -5 8 -8 5 -8 -7z m826 -301 c-3 -9 3 -20 14 -27 26 -17 26 -32
0 -18 -15 8 -20 8 -21 -2 0 -11 -2 -11 -6 0 -4 10 -8 10 -21 0 -15 -12 -16
-11 -3 4 7 10 18 15 23 12 5 -3 9 0 7 7 -2 22 0 39 7 39 3 0 4 -7 0 -15z m81
-161 c-3 -3 -12 -4 -19 -1 -8 3 -5 6 6 6 11 1 17 -2 13 -5z m60 -46 c-3 -8 -6
-5 -6 6 -1 11 2 17 5 13 3 -3 4 -12 1 -19z m-57 -18 c0 -5 -5 -10 -11 -10 -5
0 -7 5 -4 10 3 6 8 10 11 10 2 0 4 -4 4 -10z m200 -216 c0 -2 -9 -4 -20 -4
-11 0 -20 4 -20 9 0 5 9 7 20 4 11 -3 20 -7 20 -9z m110 -179 c0 -8 -2 -15 -4
-15 -2 0 -6 7 -10 15 -3 8 -1 15 4 15 6 0 10 -7 10 -15z m47 -107 c-3 -8 -6
-5 -6 6 -1 11 2 17 5 13 3 -3 4 -12 1 -19z m27 7 c-4 -8 -8 -15 -10 -15 -2 0
-4 7 -4 15 0 8 4 15 10 15 5 0 7 -7 4 -15z m-24 -39 c0 -2 -7 -7 -16 -10 -8
-3 -12 -2 -9 4 6 10 25 14 25 6z m17 -38 c-3 -8 -6 -5 -6 6 -1 11 2 17 5 13 3
-3 4 -12 1 -19z m52 -20 c0 -10 -2 -10 -6 0 -2 6 -11 12 -19 12 -8 0 -11 6 -8
15 5 12 8 12 20 0 8 -7 14 -20 13 -27z m-94 22 c3 -5 1 -10 -4 -10 -6 0 -11 5
-11 10 0 6 2 10 4 10 3 0 8 -4 11 -10z m95 -95 c0 -8 -2 -15 -4 -15 -2 0 -6 7
-10 15 -3 8 -1 15 4 15 6 0 10 -7 10 -15z m-13 -47 c-3 -8 -6 -5 -6 6 -1 11 2
17 5 13 3 -3 4 -12 1 -19z m-112 3 c3 -5 2 -12 -3 -15 -5 -3 -9 1 -9 9 0 17 3
19 12 6z m81 -13 c-9 -5 -22 -7 -29 -4 -7 2 -4 5 6 5 9 1 17 6 17 12 0 5 5 7
11 3 8 -5 6 -10 -5 -16z m-29 -40 c-3 -8 -6 -5 -6 6 -1 11 2 17 5 13 3 -3 4
-12 1 -19z m-127 -52 c0 -3 -4 -8 -10 -11 -5 -3 -10 -1 -10 4 0 6 5 11 10 11
6 0 10 -2 10 -4z m-40 -34 c0 -13 -12 -22 -22 -16 -10 6 -1 24 13 24 5 0 9 -4
9 -8z m-74 -107 c-11 -8 -15 -19 -11 -27 7 -11 6 -11 -6 0 -12 11 -11 15 5 28
11 8 22 14 25 14 3 0 -2 -7 -13 -15z m-36 -151 c-18 -21 -24 -10 -9 18 8 14
14 18 17 10 2 -7 -2 -19 -8 -28z m-120 -44 c0 -5 -4 -10 -10 -10 -5 0 -10 -8
-10 -17 0 -15 2 -16 10 -3 11 17 13 10 4 -14 -7 -19 -20 -21 -27 -3 -6 16 10
57 23 57 5 0 10 -4 10 -10z m-50 -50 c0 -5 -4 -10 -10 -10 -5 0 -10 5 -10 10
0 6 5 10 10 10 6 0 10 -4 10 -10z m-90 -50 c0 -5 -7 -7 -15 -4 -8 4 -15 8 -15
10 0 2 7 4 15 4 8 0 15 -4 15 -10z m-355 -140 c3 -5 1 -10 -4 -10 -6 0 -11 5
-11 10 0 6 2 10 4 10 3 0 8 -4 11 -10z m-125 -65 c0 -8 -2 -15 -4 -15 -2 0 -6
7 -10 15 -3 8 -1 15 4 15 6 0 10 -7 10 -15z m-180 -119 c0 -3 -4 -8 -10 -11
-5 -3 -10 -1 -10 4 0 6 5 11 10 11 6 0 10 -2 10 -4z m-384 -403 c-3 -8 -6 -17
-6 -19 0 -2 -7 -4 -16 -4 -13 0 -14 3 -4 15 6 8 9 19 5 24 -4 7 0 8 10 5 9 -4
14 -13 11 -21z"/>
<path d="M40500 36771 c0 -6 5 -13 10 -16 6 -3 10 1 10 9 0 9 -4 16 -10 16 -5
0 -10 -4 -10 -9z"/>
<path d="M40550 36760 c0 -5 5 -10 11 -10 5 0 7 5 4 10 -3 6 -8 10 -11 10 -2
0 -4 -4 -4 -10z"/>
<path d="M40570 36734 c0 -10 31 -36 37 -31 3 3 -2 13 -10 22 -16 15 -27 19
-27 9z"/>
<path d="M40651 36624 c0 -11 3 -14 6 -6 3 7 2 16 -1 19 -3 4 -6 -2 -5 -13z"/>
<path d="M40775 36610 c-3 -5 -2 -10 4 -10 5 0 13 5 16 10 3 6 2 10 -4 10 -5
0 -13 -4 -16 -10z"/>
<path d="M40667 36577 c2 -4 12 -7 21 -5 10 1 24 -1 32 -6 12 -7 13 -7 2 5
-14 15 -64 21 -55 6z"/>
<path d="M40686 36553 c5 -5 12 -12 16 -18 4 -6 8 -2 8 8 0 9 -7 17 -17 17 -9
0 -12 -3 -7 -7z"/>
<path d="M40750 36490 c0 -5 5 -10 11 -10 5 0 7 5 4 10 -3 6 -8 10 -11 10 -2
0 -4 -4 -4 -10z"/>
<path d="M40753 36457 c-3 -4 -3 -10 -1 -12 6 -6 48 6 48 14 0 10 -41 8 -47
-2z"/>
<path d="M40830 36444 c0 -8 5 -12 10 -9 6 3 10 10 10 16 0 5 -4 9 -10 9 -5 0
-10 -7 -10 -16z"/>
<path d="M40761 36404 c0 -11 3 -14 6 -6 3 7 2 16 -1 19 -3 4 -6 -2 -5 -13z"/>
<path d="M40945 36303 c4 -35 12 -38 17 -5 2 18 0 29 -8 29 -7 0 -11 -11 -9
-24z"/>
<path d="M40970 36269 c0 -4 7 -9 15 -13 9 -3 15 0 15 8 0 7 -7 13 -15 13 -8
0 -15 -4 -15 -8z"/>
<path d="M40970 36210 c8 -5 24 -10 34 -10 26 0 18 6 -19 14 -22 5 -26 4 -15
-4z"/>
<path d="M40975 36180 c-3 -5 -1 -10 4 -10 6 0 11 5 11 10 0 6 -2 10 -4 10 -3
0 -8 -4 -11 -10z"/>
<path d="M41053 36049 c9 -5 17 -19 17 -29 0 -11 5 -20 11 -20 6 0 8 9 4 20
-4 13 -2 20 7 21 17 1 -22 17 -42 18 -12 0 -11 -2 3 -10z"/>
<path d="M40970 36040 c0 -5 11 -10 25 -10 14 0 25 5 25 10 0 6 -11 10 -25 10
-14 0 -25 -4 -25 -10z"/>
<path d="M41110 36000 c0 -5 5 -10 11 -10 5 0 7 5 4 10 -3 6 -8 10 -11 10 -2
0 -4 -4 -4 -10z"/>
<path d="M41110 35976 c0 -2 7 -6 15 -10 8 -3 15 -1 15 4 0 6 -7 10 -15 10 -8
0 -15 -2 -15 -4z"/>
<path d="M41110 35919 c0 -5 5 -7 10 -4 6 3 10 8 10 11 0 2 -4 4 -10 4 -5 0
-10 -5 -10 -11z"/>
<path d="M41020 35669 c0 -5 5 -7 10 -4 6 3 10 8 10 11 0 2 -4 4 -10 4 -5 0
-10 -5 -10 -11z"/>
<path d="M40805 35600 c-3 -5 1 -10 10 -10 9 0 13 5 10 10 -3 6 -8 10 -10 10
-2 0 -7 -4 -10 -10z"/>
<path d="M40952 35560 c0 -14 2 -19 5 -12 2 6 2 18 0 25 -3 6 -5 1 -5 -13z"/>
<path d="M40875 35541 c-3 -5 -2 -12 3 -15 5 -3 9 1 9 9 0 17 -3 19 -12 6z"/>
<path d="M40814 35441 c3 -5 15 -7 26 -4 28 7 25 13 -6 13 -14 0 -23 -4 -20
-9z"/>
<path d="M40396 35165 c-9 -26 -7 -32 5 -12 6 10 9 21 6 23 -2 3 -7 -2 -11
-11z"/>
<path d="M39330 34375 c0 -8 -4 -14 -9 -12 -5 1 -10 -2 -10 -7 -1 -6 5 -11 14
-12 10 -1 15 6 15 22 0 13 -2 24 -5 24 -3 0 -5 -7 -5 -15z"/>
<path d="M39310 34321 c-6 -12 -7 -21 -1 -21 10 0 24 30 17 37 -2 3 -9 -5 -16
-16z"/>
<path d="M39195 34220 c-3 -5 -1 -10 4 -10 6 0 11 5 11 10 0 6 -2 10 -4 10 -3
0 -8 -4 -11 -10z"/>
<path d="M45446 33941 c-9 -39 -16 -82 -16 -97 0 -22 -2 -24 -15 -14 -8 6 -20
8 -27 4 -7 -5 -22 -10 -33 -11 -10 -2 -22 -8 -26 -15 -4 -6 -12 -7 -19 -3 -16
10 -33 -17 -17 -27 7 -5 -3 -6 -20 -3 -24 4 -38 0 -53 -15 -11 -11 -25 -20
-31 -20 -6 0 -9 -7 -5 -15 4 -11 -1 -15 -17 -15 -13 0 -29 -6 -36 -12 -11 -11
-13 -10 -7 2 4 8 -4 2 -19 -15 -14 -16 -30 -29 -35 -27 -6 1 -10 -3 -10 -9 0
-5 -4 -7 -10 -4 -5 3 -10 -1 -10 -9 0 -17 -34 -31 -51 -20 -8 5 -9 3 -5 -5 5
-8 0 -14 -13 -18 -11 -3 -27 -16 -36 -30 -10 -14 -22 -22 -31 -19 -8 3 -14 1
-14 -5 0 -6 -3 -8 -7 -6 -5 3 -19 -10 -33 -29 -16 -22 -31 -33 -42 -30 -11 2
-18 -2 -18 -10 0 -8 -6 -14 -13 -14 -7 0 -25 -11 -40 -26 -15 -14 -32 -22 -37
-19 -6 3 -10 -1 -10 -9 0 -8 -10 -22 -22 -30 -12 -9 -19 -16 -14 -16 5 0 3 -7
-4 -15 -6 -8 -15 -13 -18 -12 -4 1 -8 -1 -10 -5 -6 -17 -55 -63 -64 -60 -6 2
-8 -4 -5 -12 3 -8 0 -17 -8 -20 -7 -2 -21 -21 -30 -40 -11 -23 -24 -36 -36
-36 -11 0 -19 -7 -19 -15 0 -8 -4 -15 -9 -15 -5 0 -12 -11 -15 -25 -4 -14 -11
-25 -16 -25 -6 0 -10 -9 -10 -21 0 -19 -21 -49 -34 -49 -3 0 -3 8 1 18 5 14 3
13 -10 -3 -10 -13 -12 -21 -5 -24 6 -2 -4 -10 -22 -17 -26 -11 -30 -17 -21
-28 17 -20 7 -59 -23 -91 -14 -15 -26 -35 -26 -43 0 -10 -7 -13 -21 -9 -15 4
-19 2 -15 -8 3 -8 0 -12 -7 -9 -9 3 -11 -11 -8 -53 3 -32 6 -50 8 -40 3 9 8
15 13 12 13 -8 -22 -74 -40 -75 -9 -1 -6 -5 8 -10 12 -5 22 -12 22 -14 0 -3
-7 -3 -16 1 -13 5 -15 2 -10 -14 4 -14 1 -23 -9 -27 -9 -3 -13 -2 -10 4 3 6 1
10 -4 10 -15 0 -14 -13 4 -46 l15 -29 1 25 c0 14 3 19 6 12 3 -8 0 -24 -6 -36
-7 -12 -11 -26 -10 -32 6 -20 -12 -95 -21 -89 -6 4 -8 11 -5 16 3 5 0 6 -8 3
-20 -7 -17 -34 4 -34 10 0 23 8 28 18 6 10 11 12 11 4 0 -7 -7 -24 -16 -37
-13 -20 -14 -25 -3 -25 11 -1 10 -4 -2 -13 -9 -7 -21 -22 -28 -34 -9 -19 -9
-23 2 -23 7 0 13 -8 14 -19 1 -14 -4 -18 -20 -15 -12 2 -16 2 -9 -2 6 -3 12
-12 12 -20 0 -8 7 -14 15 -14 8 0 12 -6 9 -14 -3 -8 -12 -12 -20 -9 -9 3 -14
-2 -14 -16 0 -31 3 -36 22 -35 14 0 15 -3 7 -13 -6 -7 -8 -13 -5 -13 4 0 0 -7
-9 -16 -9 -9 -13 -19 -10 -22 3 -4 11 0 16 8 9 12 10 12 5 -2 -3 -11 0 -18 7
-18 9 0 8 -3 -1 -9 -17 -11 -17 -22 0 -32 10 -6 10 -11 1 -20 -6 -6 -9 -17 -7
-24 3 -7 1 -16 -5 -19 -6 -4 -7 -14 -4 -24 6 -15 5 -16 -12 -2 -17 14 -18 13
-11 -5 5 -11 9 -25 9 -32 0 -7 4 -10 9 -7 5 3 6 10 3 15 -4 5 -1 9 4 9 6 0 10
-11 9 -25 -1 -14 -8 -25 -14 -25 -7 0 -15 -7 -18 -16 -9 -22 -8 -24 10 -24 8
0 12 5 9 10 -8 12 5 13 23 1 10 -6 9 -10 -7 -14 -12 -3 -21 -13 -20 -24 0 -16
1 -16 9 2 10 22 11 21 15 -13 2 -15 -2 -21 -10 -18 -16 6 -14 -17 4 -38 9 -11
10 -16 2 -16 -6 0 -11 -5 -11 -11 0 -5 4 -8 9 -5 5 3 12 -1 15 -10 3 -8 2 -12
-4 -9 -6 3 -10 2 -10 -4 0 -5 -3 -16 -6 -25 -3 -9 -1 -16 6 -16 6 0 8 6 4 13
-4 6 2 3 13 -8 19 -19 19 -20 1 -27 -10 -4 -18 -10 -18 -13 0 -4 3 -4 8 -2 4
3 16 -4 26 -14 17 -17 18 -19 3 -19 -9 0 -17 -5 -17 -11 0 -5 5 -7 10 -4 6 3
10 -2 10 -11 0 -10 8 -26 18 -37 13 -16 14 -21 3 -25 -11 -4 -11 -6 0 -13 12
-8 12 -10 0 -18 -13 -9 -6 -35 8 -27 3 3 7 -4 7 -15 0 -14 -5 -18 -21 -14 -20
6 -20 6 0 -6 11 -7 22 -15 25 -19 3 -4 12 -10 20 -13 11 -4 10 -6 -5 -6 -16
-1 -17 -3 -6 -10 8 -5 15 -22 16 -38 1 -15 3 -50 5 -78 1 -27 5 -40 7 -27 4
19 7 21 19 11 11 -9 11 -15 3 -25 -9 -10 -8 -15 3 -19 21 -8 21 -45 0 -39 -13
4 -12 3 2 -7 18 -11 18 -12 -5 -26 -13 -8 -16 -12 -6 -9 9 3 17 1 17 -5 0 -6
7 -3 16 6 9 9 19 13 23 9 3 -4 0 -9 -6 -11 -7 -3 -13 -14 -12 -26 0 -21 1 -21
9 -2 9 20 9 20 9 -1 1 -11 7 -26 14 -33 10 -11 9 -12 -3 -6 -12 6 -13 5 -2 -6
6 -7 12 -21 12 -31 0 -10 5 -18 11 -18 6 0 8 -9 3 -22 -6 -21 -5 -22 11 -8 17
14 18 13 12 -2 -3 -10 -2 -20 3 -23 6 -4 10 -13 10 -21 0 -16 30 -52 30 -37 0
10 20 -19 20 -30 0 -5 -5 -5 -11 -2 -6 4 -5 -2 3 -14 7 -12 23 -21 35 -21 13
0 23 -5 23 -11 0 -5 6 -7 13 -3 10 6 10 4 0 -7 -19 -19 -16 -28 7 -24 11 2 20
0 20 -6 0 -5 -4 -9 -10 -9 -5 0 -10 -4 -10 -9 0 -5 9 -7 21 -4 16 5 20 2 17
-13 -2 -14 4 -20 22 -22 14 -2 29 -10 33 -18 4 -8 14 -14 22 -14 8 0 20 -8 27
-18 8 -11 24 -18 40 -18 14 1 24 -2 22 -6 -3 -4 2 -8 10 -8 10 0 16 -9 17 -22
1 -17 2 -19 6 -5 3 11 14 17 34 17 29 0 38 -13 17 -26 -7 -5 -8 -2 -3 7 6 11
5 12 -6 2 -9 -10 -10 -16 -2 -24 8 -8 13 -8 17 0 5 7 16 5 34 -6 26 -17 26
-17 13 0 -12 15 -12 17 2 12 8 -4 18 -2 22 4 3 6 11 11 18 11 8 0 8 -3 -1 -12
-16 -16 -15 -25 3 -25 8 0 15 5 15 11 0 6 9 17 21 24 16 10 20 10 18 0 -3 -23
1 -38 10 -38 4 0 6 11 3 25 -3 18 0 25 12 25 9 0 16 -4 16 -8 0 -4 15 -8 33
-9 17 -1 24 1 15 4 -10 2 -18 12 -18 21 0 13 2 14 9 4 9 -15 61 -6 73 12 5 7
8 6 8 -3 0 -10 5 -8 18 6 9 11 22 18 27 16 6 -2 20 5 31 16 14 12 26 16 36 10
11 -6 20 0 34 26 19 36 39 49 56 38 7 -4 9 2 5 16 -5 22 28 69 46 63 4 -1 3 6
-2 16 -7 14 -6 19 4 19 8 0 12 -4 9 -9 -3 -4 0 -8 7 -8 7 0 9 10 7 25 -4 18
-1 25 11 25 14 0 14 2 1 10 -8 5 -10 10 -4 10 6 0 17 19 24 43 8 23 20 50 28
59 8 9 11 22 7 28 -4 6 -3 16 3 23 20 26 35 147 36 291 1 170 -5 255 -36 506
-19 150 -22 227 -23 540 0 201 3 511 7 690 3 188 2 390 -4 480 -5 85 -11 235
-11 332 -1 98 -3 178 -4 178 -1 0 -9 -31 -17 -69z m-1199 -1191 c-4 -27 -17
-38 -17 -13 0 18 8 33 17 33 1 0 2 -9 0 -20z"/>
<path d="M44300 32931 c0 -6 5 -13 10 -16 6 -3 10 1 10 9 0 9 -4 16 -10 16 -5
0 -10 -4 -10 -9z"/>
<path d="M44290 32895 c0 -9 6 -12 15 -9 8 4 15 7 15 9 0 2 -7 5 -15 9 -9 3
-15 0 -15 -9z"/>
<path d="M44180 32671 c0 -6 4 -13 10 -16 6 -3 7 1 4 9 -7 18 -14 21 -14 7z"/>
<path d="M44136 32025 c-9 -26 -7 -32 5 -12 6 10 9 21 6 23 -2 3 -7 -2 -11
-11z"/>
<path d="M44658 30593 c7 -3 16 -2 19 1 4 3 -2 6 -13 5 -11 0 -14 -3 -6 -6z"/>
<path d="M44735 30539 c-4 -6 -5 -12 -2 -15 2 -3 7 2 10 11 7 17 1 20 -8 4z"/>
<path d="M44801 30524 c0 -11 3 -14 6 -6 3 7 2 16 -1 19 -3 4 -6 -2 -5 -13z"/>
</g>
</svg>
